<?xml version="1.0" encoding="utf-8"?>
<!-- Generator: Adobe Illustrator 19.0.0, SVG Export Plug-In . SVG Version: 6.00 Build 0)  -->
<svg version="1.0" id="Layer_1" xmlns="http://www.w3.org/2000/svg" xmlns:xlink="http://www.w3.org/1999/xlink" x="0px" y="0px"
	 width="1400px" height="980px" viewBox="0 0 1400 980" enable-background="new 0 0 1400 980" xml:space="preserve">
<rect id="XMLID_50_" fill="#FFFFFF" width="1400" height="980"/>
<g id="XMLID_48_">
	<g id="XMLID_3_">
		<path id="XMLID_4_" fill="none" d="M697.4,353.5c-8-6.6-20.4-8.1-32.2,0.6c-0.3,0.2-0.6,0.5-0.9,0.9c-4.1,5.5-5.9,11.2-6,16.5
			c0.1-5.3,2-10.9,6-16.5c0.2-0.3,0.5-0.6,0.9-0.9C677,345.4,689.3,346.9,697.4,353.5c2.6,2.1,6.4,0.4,6.4-2.9v0
			C703.8,353.9,699.9,355.6,697.4,353.5z"/>
		<path id="XMLID_136_" fill="none" d="M747.6,213.2c-0.5,1.1-1,2.3-1.6,3.3C746.5,215.5,747.1,214.4,747.6,213.2z"/>
		<path id="XMLID_137_" fill="none" d="M736.4,182.9c1.2,0.6,2.4,1.2,3.6,1.9C738.8,184.1,737.6,183.4,736.4,182.9z"/>
		<path id="XMLID_138_" fill="none" d="M735.2,182.3c-0.4-0.1-0.7-0.3-1.1-0.4v0C734.5,182.1,734.8,182.2,735.2,182.3z"/>
		<path id="XMLID_139_" fill="none" d="M745.9,216.5c-0.4,0.7-0.9,1.4-1.4,2.1C745,218,745.5,217.3,745.9,216.5z"/>
		<path id="XMLID_140_" fill="none" d="M728,180.5c-1.1-0.1-2.1-0.2-3.2-0.1C725.9,180.3,727,180.4,728,180.5z"/>
		<path id="XMLID_141_" fill="none" d="M742.8,186.7c-0.1-0.1-0.3-0.3-0.4-0.4c-0.4-0.3-0.7-0.5-1.1-0.8c0.4,0.3,0.7,0.5,1.1,0.8
			C742.5,186.5,742.7,186.6,742.8,186.7z"/>
		<path id="XMLID_142_" fill="none" d="M638.4,281.8c3.4-4.1,5.4-9.4,5.4-15.2c0,0,0,0,0,0C643.9,272.4,641.8,277.6,638.4,281.8
			c-1.7,2.1-0.9,5,1.2,6C637.5,286.8,636.7,283.8,638.4,281.8z"/>
		<path id="XMLID_143_" fill="none" d="M794.6,332.7C794.6,332.7,794.6,332.6,794.6,332.7c-1.2,0.3-2.4,0.6-3.7,0.8
			C792.1,333.3,793.4,333,794.6,332.7z"/>
		<path id="XMLID_144_" fill="none" d="M703.8,284.3L703.8,284.3c0,2.1-1.7,3.8-3.8,3.9c2.1,0,3.8,1.7,3.8,3.9v0
			c0-2.1,1.7-3.9,3.9-3.9h0C705.5,288.2,703.8,286.4,703.8,284.3z"/>
		<path id="XMLID_145_" fill="none" d="M763.7,309.9c0-0.1,0-0.2,0-0.3c0,0,0,0.1,0,0.1C763.6,309.8,763.7,309.8,763.7,309.9z"/>
		<path id="XMLID_146_" fill="#2D74B6" d="M695.6,184.2v-3.9c0-0.4,0-0.9-0.1-1.3v3.9C695.6,183.3,695.6,183.7,695.6,184.2z"/>
		<g id="XMLID_9_">
			<path id="XMLID_11_" fill="#2D74B6" d="M748.9,200.1c-0.2-1.3-0.5-2.5-1-3.8c-0.1-0.4-0.3-0.9-0.5-1.3c-0.5-1.3-1.1-2.6-1.8-3.9
				c-0.2-0.4-0.5-0.9-0.8-1.3c-0.5-0.9-1.1-1.7-1.7-2.6c0,0,0,0,0-0.1c-0.1-0.2-0.2-0.3-0.4-0.4c-0.1-0.1-0.3-0.3-0.4-0.4
				c-0.4-0.3-0.7-0.5-1.1-0.8c-0.4-0.3-0.8-0.5-1.2-0.8c-1.2-0.7-2.4-1.4-3.6-1.9c-0.4-0.2-0.8-0.4-1.2-0.5
				c-0.4-0.1-0.7-0.3-1.1-0.4v9v26.4v9.2c0.9-0.3,1.7-0.7,2.5-1.2c1-0.5,1.9-1.1,2.8-1.7s1.7-1.3,2.5-2.1c0.6-0.6,1.2-1.2,1.7-1.8
				c0.3-0.4,0.6-0.7,0.9-1.1c0.5-0.7,1-1.4,1.4-2.1c0.6-1.1,1.2-2.2,1.6-3.3c0.2-0.4,0.3-0.8,0.4-1.2c0.7-2.1,1.2-4.3,1.3-6.6
				c0-0.6,0-1.2,0-1.7C749.2,202.5,749.1,201.3,748.9,200.1z"/>
			<path id="XMLID_18_" fill="#2D74B6" d="M728,180.5c-1.1-0.1-2.1-0.2-3.2-0.1c0,0,0,0,0,0c-0.6,0-1.3,0.1-1.9,0.1
				c-0.1,0-0.1,0-0.2,0c-0.6,0.1-1.3,0.2-1.9,0.3c0,0-0.1,0-0.1,0c-0.1,0-0.2,0.1-0.4,0.1c-0.4,0.1-0.8,0.2-1.2,0.3
				c-0.4,0.1-0.7,0.2-1.1,0.3c-0.1,0-0.2,0.1-0.3,0.1c-0.1,0-0.2,0.1-0.3,0.1c-0.2,0.1-0.4,0.1-0.6,0.2c-0.8,0.3-1.6,0.7-2.4,1.1
				c-0.1,0.1-0.2,0.1-0.3,0.1c-0.1,0.1-0.2,0.1-0.3,0.2c-0.2,0.1-0.4,0.2-0.5,0.3c-0.1,0.1-0.3,0.2-0.4,0.2
				c-0.1,0.1-0.3,0.2-0.4,0.3c-0.1,0.1-0.2,0.1-0.2,0.2c-0.2,0.1-0.4,0.3-0.6,0.4c0,0-0.1,0.1-0.1,0.1c-0.2,0.2-0.5,0.3-0.7,0.5
				c0,0,0,0,0,0c-0.3,0.2-0.5,0.4-0.7,0.6c-2.6,2.1-6.4,0.4-6.4-2.9v0v-42.2c-1.9,2.4-3.1,5.5-3.1,8.9v43.2v23.2v61
				c0,1.4-1.1,2.5-2.5,2.5s-2.5-1.1-2.5-2.5v-52.4v-40.3c0-0.4-0.1-0.9-0.1-1.3V179c-0.8-6.9-7.8-12.9-15.5-12.9
				c-8.1,0-14.9,6.5-14.9,14.2c0,0,0.1,29.5,0.2,58.9c0,14.7,0.1,29.5,0.1,40.5c0,0,0,0,0,0.1c0,3.1,0,5.9,0,8.4h34.5c0,0,0,0,0,0
				c2.1,0,3.8-1.8,3.8-3.9v-58.5v0c0-3.3,3.8-5,6.4-2.9c0.1,0.1,0.2,0.2,0.3,0.2c0.9,0.7,1.9,1.4,3,2c0.4,0.2,0.7,0.4,1.1,0.6
				c0.2,0.1,0.4,0.2,0.7,0.4c0.4,0.2,0.9,0.4,1.4,0.6c0.2,0.1,0.3,0.1,0.5,0.2c0.2,0.1,0.4,0.1,0.5,0.2c1,0.3,2,0.6,3.1,0.8
				c0.5,0.1,1,0.2,1.4,0.2c1,0.1,2,0.2,3.1,0.2c1.3,0,2.6-0.1,3.8-0.3v-8.5v-30.3v-8.5C728.8,180.6,728.4,180.5,728,180.5
				C728.1,180.5,728,180.5,728,180.5z"/>
			<path id="XMLID_19_" fill="#2D74B6" d="M652.4,265.4c-3.7-7.5-8.7-13.3-14.8-17.2c-1.7-1.1-4.5-2.6-7.7-3.4
				c8.2,3.8,14,12.1,14,21.8c0,0,0,0,0,0c0,0,0,0,0,0c0,5.8-2,11-5.4,15.2c-1.7,2.1-0.9,5,1.2,6c0.5,0.2,1.1,0.4,1.7,0.4h17.8
				c-0.5-2.9-1-5.7-1.7-8.4C656.2,274.4,654.5,269.6,652.4,265.4z"/>
		</g>
		<path id="XMLID_161_" fill="#FFF200" d="M639.7,287.8c0.5,0.2,1.1,0.4,1.7,0.4h17.8c0,0,0,0,0,0h-17.8
			C640.7,288.1,640.2,288,639.7,287.8z"/>
		<path id="XMLID_162_" fill="#FFF200" d="M643.9,266.6C643.9,266.6,643.9,266.6,643.9,266.6c0-9.7-5.7-18-14-21.8c0,0,0,0-0.1,0
			C638.1,248.6,643.9,256.9,643.9,266.6z"/>
		<path id="XMLID_163_" fill="#FFF200" d="M699.9,288.2C699.9,288.2,699.9,288.1,699.9,288.2l-34.5,0c0,0,0,0,0,0L699.9,288.2
			C699.9,288.2,699.9,288.2,699.9,288.2z"/>
		<path id="XMLID_12_" fill="#FFF200" d="M699.9,288.2C699.9,288.2,699.9,288.2,699.9,288.2l-34.5,0c0,1.9,0,3.5,0,4.9
			c0,1.5,0,2.8,0,3.6c0,0,0,0.1,0,0.1c0,1.4-0.1,3.6-2.4,3.8c-1.3,0.1-2.5-0.9-2.7-2.2c0,0,0-0.1,0-0.1c0-0.5-0.1-1-0.1-1.6
			c-0.3-3-0.6-5.8-1-8.6h-17.8c-0.6,0-1.2-0.1-1.7-0.4c-2.1-1-3-3.9-1.3-6c3.4-4.1,5.4-9.4,5.4-15.2c0-9.7-5.8-18-14-21.8
			c-4.1-1-8.9-0.9-12.8,3.1c-1.3,1.3-2.3,2.8-3,4.4c-2.3,5.2-1.3,11.5,3,15.7c9.9,9.9,15.3,23,15.3,36.9v14.8c0,0.1,0,0.2,0,0.3v10
			c0,18.7,6.6,36.4,18.6,50.5c1.3,1.5,2.7,3.1,4.1,4.5l18.3,18.3l2.4,2.4c0.5,0.5,0.7,1.1,0.7,1.8v33.6h18.9h8.4v-47.6
			c0-3.3-3.8-5-6.4-2.9c-4.1,3.4-9.4,5.4-15.2,5.4c-13.4,0-24.3-11.1-23.9-24.6c0.1-5.3,2-11,6-16.5c0.2-0.3,0.5-0.6,0.9-0.9
			c11.8-8.7,24.2-7.2,32.2-0.6c2.6,2.1,6.4,0.4,6.4-2.9V292c0,0,0,0,0,0v0C703.8,289.9,702,288.2,699.9,288.2z"/>
		<path id="XMLID_170_" fill="#ED1C24" d="M748,196.3c0.4,1.3,0.7,2.6,1,3.8C748.7,198.9,748.4,197.6,748,196.3z"/>
		<path id="XMLID_171_" fill="#ED1C24" d="M745.7,191.1c0.7,1.3,1.3,2.6,1.8,3.9C747,193.7,746.4,192.4,745.7,191.1z"/>
		<path id="XMLID_174_" fill="#ED1C24" d="M744.9,189.8c-0.5-0.9-1.1-1.7-1.7-2.6c0,0,0,0,0-0.1c0,0,0,0,0,0.1
			C743.9,188.1,744.4,189,744.9,189.8z"/>
		<path id="XMLID_175_" fill="#ED1C24" d="M703.8,182.8L703.8,182.8c0,3.3,3.8,5,6.4,2.9c0.2-0.2,0.5-0.4,0.7-0.6
			c-0.3,0.2-0.5,0.4-0.7,0.6C707.6,187.9,703.8,186.2,703.8,182.8z"/>
		<path id="XMLID_176_" fill="#ED1C24" d="M710.2,222.8c0.1,0.1,0.2,0.2,0.3,0.2C710.4,223,710.3,222.9,710.2,222.8
			c-2.6-2.1-6.4-0.4-6.4,2.9v0C703.8,222.5,707.6,220.7,710.2,222.8z"/>
		<path id="XMLID_177_" fill="#ED1C24" d="M741.9,221.6c-0.8,0.7-1.6,1.4-2.5,2.1C740.3,223.1,741.1,222.4,741.9,221.6z"/>
		<g id="XMLID_15_">
			<path id="XMLID_16_" fill="#ED1C24" d="M710.2,185.8c0.2-0.2,0.5-0.4,0.7-0.6c0,0,0,0,0,0c0.2-0.2,0.5-0.3,0.7-0.5
				c0,0,0.1-0.1,0.1-0.1c0.2-0.1,0.4-0.3,0.6-0.4c0.1-0.1,0.2-0.1,0.2-0.2c0.1-0.1,0.3-0.2,0.4-0.3c0.1-0.1,0.3-0.2,0.4-0.2
				c0.2-0.1,0.4-0.2,0.5-0.3c0.1-0.1,0.2-0.1,0.3-0.2c0.1-0.1,0.2-0.1,0.3-0.1c0.8-0.4,1.6-0.7,2.4-1.1c0.2-0.1,0.4-0.1,0.6-0.2
				c0.1,0,0.2-0.1,0.3-0.1c0.1,0,0.2-0.1,0.3-0.1c0.4-0.1,0.7-0.2,1.1-0.3c0.4-0.1,0.8-0.2,1.2-0.3c0.1,0,0.2-0.1,0.4-0.1
				c0,0,0.1,0,0.1,0c0.6-0.1,1.3-0.2,1.9-0.3c0.1,0,0.1,0,0.2,0c0.6-0.1,1.3-0.1,1.9-0.1c0,0,0,0,0,0c1,0,2.1,0,3.2,0.1c0,0,0,0,0,0
				c0.3,0,0.7,0.1,1,0.2v-8.5v-22.7c0-7.8-6.4-14.2-14.2-14.2c-0.9,0-1.8,0.1-2.7,0.3c-3.4,0.7-6.3,2.5-8.4,5.1v42.2
				C703.8,186.2,707.6,187.9,710.2,185.8z"/>
			<path id="XMLID_148_" fill="#ED1C24" d="M747,166c-5.2,0-9.4,2.9-11.5,7.5c-0.9,2-1.4,4.2-1.4,6.7v1.7c0.4,0.1,0.7,0.3,1.1,0.4
				c0.4,0.2,0.8,0.3,1.2,0.5c1.2,0.6,2.4,1.2,3.6,1.9c0.4,0.2,0.8,0.5,1.2,0.8c0.4,0.3,0.7,0.5,1.1,0.8c0.2,0.1,0.3,0.2,0.4,0.4
				s0.3,0.3,0.4,0.4c0,0,0,0,0,0.1c0.6,0.9,1.2,1.7,1.7,2.6c0.3,0.4,0.5,0.9,0.8,1.3c0.7,1.3,1.3,2.6,1.8,3.9
				c0.2,0.4,0.3,0.9,0.5,1.3c0.4,1.3,0.7,2.6,1,3.8c0.2,1.2,0.3,2.4,0.3,3.6c0,0.6,0,1.2,0,1.7c-0.1,2.3-0.5,4.5-1.3,6.6
				c-0.1,0.4-0.3,0.8-0.4,1.2c-0.5,1.1-1,2.3-1.6,3.3c-0.4,0.7-0.9,1.4-1.4,2.1c-0.3,0.4-0.6,0.8-0.9,1.1c-0.5,0.6-1.1,1.3-1.7,1.8
				c-0.8,0.7-1.6,1.4-2.5,2.1c-0.9,0.6-1.8,1.2-2.8,1.7c-0.8,0.4-1.6,0.8-2.5,1.2v8.8v41.5c0,1.4-1.1,2.5-2.5,2.5s-2.5-1.1-2.5-2.5
				v-40.5V228c-1.2,0.2-2.5,0.3-3.8,0.3c-1.1,0-2.1-0.1-3.1-0.2c-0.5-0.1-1-0.1-1.4-0.2c-1.1-0.2-2.1-0.5-3.1-0.8
				c-0.2-0.1-0.4-0.1-0.5-0.2c-0.2-0.1-0.3-0.1-0.5-0.2c-0.5-0.2-0.9-0.4-1.4-0.6c-0.2-0.1-0.5-0.2-0.7-0.4
				c-0.4-0.2-0.8-0.4-1.1-0.6c-1-0.6-2-1.3-3-2c-0.1-0.1-0.2-0.2-0.3-0.2c-2.6-2.1-6.4-0.4-6.4,2.9v58.5v0c0,2.1,1.7,3.9,3.9,3.9
				h54.3c0,0,0,0,0,0v-8.4v-99.5C761.9,172.5,755,166,747,166z"/>
			<path id="XMLID_149_" fill="#ED1C24" d="M780.4,210.2c-7.7,0-13.5,6.1-13.5,14.2v55.4v8.4c0,0,0,0,0,0.1c2.8,0.5,4.1,4,2.2,6.3
				c-0.4,0.5-0.8,1-1.2,1.6c0,0,0,0,0,0c-0.4,0.5-0.7,1.1-1,1.7c0,0,0,0.1,0,0.1c-0.3,0.6-0.6,1.1-0.9,1.7c0,0,0,0.1-0.1,0.1
				c-0.3,0.6-0.5,1.1-0.7,1.7c0,0.1,0,0.1-0.1,0.2c-0.2,0.6-0.4,1.2-0.6,1.8c0,0.1,0,0.1-0.1,0.2c-0.2,0.6-0.3,1.2-0.4,1.8
				c0,0.1,0,0.1,0,0.2c-0.1,0.6-0.2,1.2-0.2,1.8c0,0.1,0,0.2,0,0.2c-0.1,0.6-0.1,1.2-0.1,1.9c0,0.1,0,0.2,0,0.3c0,0.5,0,1,0.1,1.5
				c0,0,0,0.1,0,0.1c0,0.5,0.1,1.1,0.2,1.6c0,0,0,0,0,0c1.5,10.5,9.9,18.8,20.4,20.3c0.2,0,0.4,0.1,0.6,0.1c0.3,0,0.6,0.1,0.9,0.1
				c0.3,0,0.6,0,0.9,0.1c0.3,0,0.6,0,0.9,0c0.3,0,0.6,0,0.9,0c0.3,0,0.6,0,0.9-0.1c0.3,0,0.6,0,0.9-0.1c0.2,0,0.4-0.1,0.6-0.1
				c1.3-0.2,2.5-0.5,3.7-0.8c0-0.9,0.1-1.7,0.1-2.6v-6.4v-99.2C794.7,216.6,788.3,210.2,780.4,210.2z"/>
		</g>
		<rect id="XMLID_185_" x="703.8" y="292" fill="#8CC240" width="0" height="58.5"/>
		<path id="XMLID_186_" fill="#8CC240" d="M697.4,390.5c-4.1,3.4-9.4,5.4-15.2,5.4c-13.4,0-24.3-11-23.9-24.6
			c-0.3,13.5,10.5,24.6,23.9,24.6C688,396,693.2,393.9,697.4,390.5c2.6-2.1,6.4-0.4,6.4,2.9v47.6h0v-47.6
			C703.8,390.1,699.9,388.4,697.4,390.5z"/>
		<path id="XMLID_187_" fill="#8CC240" d="M770.5,327.6c4.6,3.4,9.3,5.2,13.8,5.8c-10.5-1.5-18.9-9.8-20.4-20.3
			c0.6,4.4,2.4,9.1,5.8,13.6C769.9,327.1,770.2,327.4,770.5,327.6z"/>
		<path id="XMLID_188_" fill="#8CC240" d="M769.1,294.6c-0.4,0.5-0.8,1-1.2,1.6C768.3,295.6,768.7,295.1,769.1,294.6
			c2-2.4,0.6-5.8-2.2-6.3c0,0,0,0,0,0C769.7,288.8,771,292.2,769.1,294.6z"/>
		<path id="XMLID_10_" fill="#8CC240" d="M790.9,333.4c-0.2,0-0.4,0.1-0.6,0.1c-0.3,0-0.6,0.1-0.9,0.1c-0.3,0-0.6,0-0.9,0.1
			c-0.3,0-0.6,0-0.9,0c-0.3,0-0.6,0-0.9,0c-0.3,0-0.6,0-0.9-0.1c-0.3,0-0.6,0-0.9-0.1c-0.2,0-0.4-0.1-0.6-0.1
			c-4.5-0.6-9.2-2.4-13.8-5.8c-0.3-0.2-0.6-0.5-0.9-0.9c-3.3-4.5-5.2-9.2-5.8-13.6c0,0,0,0,0,0c-0.1-0.5-0.1-1.1-0.2-1.6
			c0,0,0-0.1,0-0.1c0-0.5-0.1-1-0.1-1.5c0-0.1,0-0.1,0-0.2c0,0,0-0.1,0-0.1c0-0.6,0-1.3,0.1-1.9c0-0.1,0-0.2,0-0.2
			c0.1-0.6,0.1-1.2,0.2-1.8c0-0.1,0-0.1,0-0.2c0.1-0.6,0.2-1.2,0.4-1.8c0-0.1,0-0.1,0.1-0.2c0.2-0.6,0.4-1.2,0.6-1.8
			c0-0.1,0-0.1,0.1-0.2c0.2-0.6,0.5-1.2,0.7-1.7c0,0,0-0.1,0.1-0.1c0.3-0.6,0.6-1.1,0.9-1.7c0,0,0-0.1,0-0.1c0.3-0.6,0.7-1.1,1-1.7
			c0,0,0,0,0,0c0.4-0.5,0.8-1.1,1.2-1.6c1.9-2.4,0.6-5.8-2.2-6.3c0,1.3-1.1,2.4-2.5,2.4c-1.4,0-2.5-1.1-2.5-2.5h-54.3h0
			c-2.1,0-3.9,1.7-3.9,3.9v58.5c0,0,0,0,0,0v0c0,3.3-3.8,5-6.4,2.9c-8-6.6-20.4-8.1-32.2,0.6c-0.3,0.2-0.6,0.5-0.9,0.9
			c-4.1,5.5-5.9,11.2-6,16.5c-0.3,13.5,10.5,24.6,23.9,24.6c5.8,0,11-2,15.2-5.4c2.6-2.1,6.4-0.4,6.4,2.9v47.6h8.4h38.3v-33.6
			c0-0.7,0.3-1.3,0.7-1.8l20.7-20.7c12-12,19.5-27.1,21.9-43.5c0.4-2.9,0.7-5.8,0.8-8.8C793.4,333,792.1,333.3,790.9,333.4z"/>
	</g>
	<g id="XMLID_1_">
		<path id="XMLID_20_" fill="#2D74B6" d="M1117.3,603.8c-0.7-4.2-2.5-8.6-5.7-12.9c-0.1-0.2-0.3-0.3-0.4-0.5s-0.3-0.3-0.5-0.4
			c-0.4-0.3-0.7-0.5-1.1-0.8c-3.6-2.4-7.2-4-10.8-4.7c-0.1,0-0.2-0.1-0.3-0.1c-0.7-0.1-1.4-0.2-2-0.3c0,0,0,0,0,0
			c-1.1-0.1-2.1-0.2-3.2-0.1c0,0,0,0,0,0c-0.6,0-1.3,0.1-1.9,0.1c-0.1,0-0.1,0-0.2,0c-0.6,0.1-1.3,0.2-1.9,0.3c0,0-0.1,0-0.1,0
			c-0.1,0-0.2,0.1-0.4,0.1c-0.4,0.1-0.8,0.2-1.2,0.3c-0.4,0.1-0.7,0.2-1.1,0.3c-0.1,0-0.2,0.1-0.3,0.1c-0.1,0-0.2,0.1-0.3,0.1
			c-0.2,0.1-0.4,0.1-0.6,0.2c-0.8,0.3-1.6,0.7-2.4,1.1c-0.1,0.1-0.2,0.1-0.3,0.1c-0.1,0.1-0.2,0.1-0.3,0.2c-0.2,0.1-0.4,0.2-0.5,0.3
			c-0.1,0.1-0.3,0.2-0.4,0.2c-0.1,0.1-0.3,0.2-0.4,0.3c-0.1,0.1-0.2,0.1-0.2,0.2c-0.2,0.1-0.4,0.3-0.6,0.4c0,0-0.1,0.1-0.1,0.1
			c-0.2,0.2-0.5,0.3-0.7,0.5c0,0,0,0,0,0c-0.3,0.2-0.5,0.4-0.7,0.6c-2.6,2.1-6.4,0.4-6.4-2.9v0v-50.1h-8.2h-44.5h-9.1
			c3.2,7.6,2.6,17.1-4.2,26.3c-0.2,0.3-0.5,0.6-0.9,0.9c-19.6,14.5-41,0.8-41-17.9c0-3.3,0.7-6.4,1.9-9.3h-8.7h-8.4
			c-17.9,0-32.4,14.5-32.4,32.4v114.6v8.4h50.1c0.6,0,1.2-0.1,1.7-0.4c2.1-1,3-4,1.2-6c-3.4-4.1-5.4-9.4-5.4-15.2
			c0-5.4,1.8-11.3,6-17c0.2-0.3,0.5-0.6,0.9-0.9c19.6-14.5,41-0.8,41,17.9c0,0,0,0,0,0c0,0,0,0,0,0c0,5.8-2,11-5.4,15.2
			c-1.7,2.1-0.9,5,1.2,6c0.5,0.2,1.1,0.4,1.7,0.4h58.5c0,0,0,0,0,0c2.1,0,3.8-1.8,3.8-3.9v-58.5v0c0-3.3,3.8-5,6.4-2.9
			c0.2,0.2,0.4,0.3,0.6,0.4c0.3,0.3,0.7,0.5,1,0.8c0.3,0.2,0.7,0.4,1,0.6c0.2,0.1,0.5,0.3,0.7,0.4c0.3,0.2,0.6,0.3,0.9,0.5
			c0.3,0.1,0.6,0.3,0.8,0.4c1,0.4,2,0.8,3,1.1c0.9,0.3,1.9,0.5,2.9,0.7c0.3,0.1,0.6,0.1,1,0.1c1.1,0.1,2.2,0.2,3.3,0.2
			c2.9,0,5.7-0.5,8.3-1.5c1-0.4,2-0.8,3-1.4c1-0.5,1.9-1.1,2.8-1.7s1.7-1.3,2.5-2.1c0.4-0.4,0.8-0.8,1.1-1.2c0.7-0.8,1.4-1.6,2-2.5
			c1.2-1.8,2.2-3.7,3-5.8c0.7-2.1,1.2-4.3,1.3-6.6c0-0.6,0-1.2,0-1.7C1117.7,606.2,1117.5,605,1117.3,603.8z"/>
		<path id="XMLID_79_" fill="#FFF200" d="M968.5,691.5c-0.5,0.2-1.1,0.4-1.7,0.4h-50.1v0h50.1C967.5,691.8,968,691.7,968.5,691.5z"
			/>
		<path id="XMLID_80_" fill="#FFF200" d="M1009.8,691.8c-0.6,0-1.2-0.1-1.7-0.4C1008.6,691.7,1009.2,691.8,1009.8,691.8l58.5,0
			c0,0,0,0,0.1,0c0,0,0,0,0,0H1009.8z"/>
		<path id="XMLID_81_" fill="#FFF200" d="M971.3,652.4c-0.3,0.2-0.6,0.5-0.9,0.9c-4.2,5.7-6,11.6-6,17c0-5.4,1.8-11.3,6-17
			C970.6,652.9,970.9,652.6,971.3,652.4c19.6-14.5,41-0.8,41,17.9c0,0,0,0,0,0C1012.3,651.6,990.9,637.9,971.3,652.4z"/>
		<path id="XMLID_17_" fill="#FFF200" d="M1068.4,691.8C1068.3,691.8,1068.3,691.8,1068.4,691.8l-58.6,0c-0.6,0-1.2-0.1-1.7-0.4
			c-2.1-1-3-3.9-1.3-6c3.4-4.1,5.4-9.4,5.4-15.2c0-18.7-21.4-32.4-41-17.9c-0.3,0.2-0.6,0.5-0.9,0.9c-4.2,5.7-6,11.6-6,17
			c0,5.8,2,11.1,5.4,15.2c1.7,2.1,0.9,5-1.3,6c-0.5,0.2-1.1,0.4-1.7,0.4h-50.1v8.6v44.5v8.7c2.8-1.2,6-1.9,9.3-1.9
			c18.7,0,32.4,21.4,17.9,41c-0.2,0.3-0.5,0.6-0.9,0.9c-9.2,6.8-18.7,7.3-26.3,4.2v9.1v8c0,17.9,14.5,32.4,32.4,32.4h8.1h8.9
			c-3.2-7.6-2.6-17.1,4.2-26.3c0.2-0.3,0.5-0.6,0.9-0.9c19.6-14.5,41-0.8,41,17.9c0,3.3-0.7,6.4-1.9,9.3h9h44.4h8.4v-50.1
			c0-3.3-3.8-5-6.4-2.9c-4.1,3.4-9.4,5.4-15.2,5.4c-13.4,0-24.3-11.1-23.9-24.6c0.1-5.3,2-11,6-16.5c0.2-0.3,0.5-0.6,0.9-0.9
			c11.8-8.7,24.2-7.2,32.2-0.6c2.6,2.1,6.4,0.4,6.4-2.9v-58.5v0C1072.2,693.6,1070.5,691.9,1068.4,691.8z"/>
		<path id="XMLID_85_" fill="#ED1C24" d="M1078.6,626.5c0.2,0.2,0.4,0.3,0.6,0.4C1079,626.8,1078.8,626.7,1078.6,626.5
			c-2.6-2.1-6.4-0.4-6.4,2.9v0C1072.2,626.2,1076,624.4,1078.6,626.5z"/>
		<path id="XMLID_86_" fill="#ED1C24" d="M1082.3,586.9c-0.2,0.1-0.4,0.2-0.5,0.3C1082,587.1,1082.1,587,1082.3,586.9z"/>
		<path id="XMLID_87_" fill="#ED1C24" d="M1117.7,607.4c0,0.6,0,1.2,0,1.7C1117.7,608.6,1117.7,608,1117.7,607.4z"/>
		<path id="XMLID_88_" fill="#ED1C24" d="M1088.8,584.5c-0.4,0.1-0.8,0.2-1.2,0.3C1088.1,584.7,1088.4,584.6,1088.8,584.5z"/>
		<path id="XMLID_89_" fill="#ED1C24" d="M1086.6,585.1c-0.1,0-0.2,0.1-0.3,0.1C1086.4,585.2,1086.5,585.2,1086.6,585.1z"/>
		<path id="XMLID_90_" fill="#ED1C24" d="M1089.3,584.4c0,0-0.1,0-0.1,0C1089.2,584.5,1089.3,584.5,1089.3,584.4z"/>
		<path id="XMLID_91_" fill="#ED1C24" d="M1083,586.6c-0.1,0.1-0.2,0.1-0.3,0.1C1082.8,586.7,1082.9,586.7,1083,586.6z"/>
		<path id="XMLID_92_" fill="#ED1C24" d="M1098.9,584.6c-0.1,0-0.2-0.1-0.3-0.1C1098.7,584.5,1098.8,584.6,1098.9,584.6z"/>
		<path id="XMLID_93_" fill="#ED1C24" d="M1081.4,587.5c-0.1,0.1-0.3,0.2-0.4,0.3C1081.1,587.6,1081.2,587.6,1081.4,587.5z"/>
		<path id="XMLID_94_" fill="#ED1C24" d="M1086,585.3c-0.2,0.1-0.4,0.1-0.6,0.2C1085.6,585.5,1085.8,585.4,1086,585.3z"/>
		<path id="XMLID_95_" fill="#ED1C24" d="M1080,588.4c-0.2,0.2-0.5,0.3-0.7,0.5C1079.6,588.7,1079.8,588.5,1080,588.4z"/>
		<path id="XMLID_96_" fill="#ED1C24" d="M1080.7,587.9c-0.2,0.1-0.4,0.3-0.6,0.4C1080.3,588.1,1080.5,588,1080.7,587.9z"/>
		<path id="XMLID_97_" fill="#ED1C24" d="M1107.8,627.4c0.9-0.6,1.7-1.3,2.5-2.1C1109.5,626.1,1108.7,626.7,1107.8,627.4z"/>
		<path id="XMLID_98_" fill="#ED1C24" d="M1081.9,628.8c0.3,0.2,0.6,0.3,0.9,0.5C1082.5,629.1,1082.2,629,1081.9,628.8z"/>
		<path id="XMLID_99_" fill="#ED1C24" d="M1105,629.1c1-0.5,1.9-1.1,2.8-1.7C1106.9,628,1106,628.6,1105,629.1z"/>
		<path id="XMLID_100_" fill="#ED1C24" d="M1083.7,629.7c1,0.4,2,0.8,3,1.1C1085.6,630.5,1084.6,630.2,1083.7,629.7z"/>
		<path id="XMLID_101_" fill="#ED1C24" d="M1091.4,584.2c-0.1,0-0.1,0-0.2,0C1091.3,584.2,1091.3,584.2,1091.4,584.2z"/>
		<path id="XMLID_102_" fill="#ED1C24" d="M1116.4,615.8c0.7-2.1,1.2-4.3,1.3-6.6C1117.6,611.4,1117.1,613.7,1116.4,615.8z"/>
		<path id="XMLID_103_" fill="#ED1C24" d="M1102,630.5c1-0.4,2-0.8,3-1.4C1104.1,629.6,1103.1,630.1,1102,630.5z"/>
		<path id="XMLID_104_" fill="#ED1C24" d="M1093.3,584C1093.3,584,1093.3,584,1093.3,584C1093.3,584,1093.3,584,1093.3,584z"/>
		<path id="XMLID_105_" fill="#ED1C24" d="M1089.5,631.6c0.3,0.1,0.6,0.1,0.9,0.1C1090.2,631.7,1089.8,631.6,1089.5,631.6z"/>
		<path id="XMLID_106_" fill="#ED1C24" d="M1111.4,624.1c0.7-0.8,1.4-1.6,2-2.5C1112.8,622.5,1112.2,623.3,1111.4,624.1z"/>
		<path id="XMLID_107_" fill="#ED1C24" d="M1072.2,586.5L1072.2,586.5c0,3.3,3.8,5,6.4,2.9c0.2-0.2,0.5-0.4,0.7-0.6
			c-0.3,0.2-0.5,0.4-0.7,0.6C1076,591.6,1072.2,589.8,1072.2,586.5z"/>
		<path id="XMLID_108_" fill="#ED1C24" d="M1080.2,627.7c0.3,0.2,0.7,0.4,1,0.6C1080.8,628.2,1080.5,628,1080.2,627.7z"/>
		<path id="XMLID_109_" fill="#ED1C24" d="M1096.5,584.2C1096.5,584.2,1096.5,584.2,1096.5,584.2
			C1096.5,584.2,1096.5,584.2,1096.5,584.2z"/>
		<path id="XMLID_72_" fill="#ED1C24" d="M1195.2,536.4h-114.6h-8.4v50.1c0,3.3,3.8,5,6.4,2.9c0.2-0.2,0.5-0.4,0.7-0.6c0,0,0,0,0,0
			c0.2-0.2,0.5-0.3,0.7-0.5c0,0,0.1-0.1,0.1-0.1c0.2-0.1,0.4-0.3,0.6-0.4c0.1-0.1,0.2-0.1,0.2-0.2c0.1-0.1,0.3-0.2,0.4-0.3
			c0.1-0.1,0.3-0.2,0.4-0.2c0.2-0.1,0.4-0.2,0.5-0.3c0.1-0.1,0.2-0.1,0.3-0.2c0.1-0.1,0.2-0.1,0.3-0.1c0.8-0.4,1.6-0.7,2.4-1.1
			c0.2-0.1,0.4-0.1,0.6-0.2c0.1,0,0.2-0.1,0.3-0.1c0.1,0,0.2-0.1,0.3-0.1c0.4-0.1,0.7-0.2,1.1-0.3c0.4-0.1,0.8-0.2,1.2-0.3
			c0.1,0,0.2-0.1,0.4-0.1c0,0,0.1,0,0.1,0c0.6-0.1,1.3-0.2,1.9-0.3c0.1,0,0.1,0,0.2,0c0.6-0.1,1.3-0.1,1.9-0.1c0,0,0,0,0,0
			c1,0,2.1,0,3.2,0.1c0,0,0,0,0,0c0.7,0.1,1.4,0.2,2,0.3c0.1,0,0.2,0,0.3,0.1c3.5,0.7,7.2,2.3,10.8,4.7c0.4,0.3,0.7,0.5,1.1,0.8
			c0.2,0.1,0.3,0.3,0.5,0.4s0.3,0.3,0.4,0.5c3.2,4.3,5,8.7,5.7,12.9c0.2,1.2,0.3,2.4,0.3,3.6c0,0.6,0,1.2,0,1.7
			c-0.1,2.3-0.5,4.5-1.3,6.6c-0.7,2.1-1.7,4.1-3,5.8c-0.6,0.9-1.3,1.7-2,2.5c-0.4,0.4-0.7,0.8-1.1,1.2c-0.8,0.7-1.6,1.4-2.5,2.1
			s-1.8,1.2-2.8,1.7c-1,0.5-2,1-3,1.4c-2.6,1-5.4,1.5-8.3,1.5c-1.1,0-2.2-0.1-3.3-0.2c-0.3,0-0.6-0.1-1-0.1c-1-0.2-1.9-0.4-2.9-0.7
			c-1-0.3-2-0.7-3-1.1c-0.3-0.1-0.6-0.3-0.8-0.4c-0.3-0.2-0.6-0.3-0.9-0.5c-0.2-0.1-0.5-0.3-0.7-0.4c-0.3-0.2-0.7-0.4-1-0.6
			c-0.4-0.2-0.7-0.5-1-0.8c-0.2-0.1-0.4-0.3-0.6-0.4c-2.6-2.1-6.4-0.4-6.4,2.9V688v0c0,2.1,1.7,3.9,3.9,3.9h58.5h0
			c3.3,0,5,3.8,2.9,6.4c-0.4,0.5-0.8,1-1.2,1.6c0,0,0,0,0,0c-0.4,0.5-0.7,1.1-1,1.7c0,0,0,0.1,0,0.1c-0.3,0.6-0.6,1.1-0.9,1.7
			c0,0,0,0.1-0.1,0.1c-0.3,0.6-0.5,1.1-0.7,1.7c0,0.1,0,0.1-0.1,0.2c-0.2,0.6-0.4,1.2-0.6,1.8c0,0.1,0,0.1-0.1,0.2
			c-0.2,0.6-0.3,1.2-0.4,1.8c0,0.1,0,0.1,0,0.2c-0.1,0.6-0.2,1.2-0.2,1.8c0,0.1,0,0.2,0,0.2c-0.1,0.6-0.1,1.3-0.1,1.9
			c0,0.1,0,0.2,0,0.3c0,0.5,0,1,0.1,1.5c0,0,0,0.1,0,0.1c0,0.5,0.1,1.1,0.2,1.6c0,0,0,0,0,0c1.5,10.5,9.9,18.8,20.4,20.3
			c0.2,0,0.4,0.1,0.6,0.1c0.3,0,0.6,0.1,0.9,0.1c0.3,0,0.6,0,0.9,0.1c0.3,0,0.6,0,0.9,0c0.3,0,0.6,0,0.9,0c0.3,0,0.6,0,0.9-0.1
			c0.3,0,0.6,0,0.9-0.1c0.2,0,0.4-0.1,0.6-0.1c10.5-1.5,18.9-9.8,20.4-20.3c0,0,0,0,0,0c0.1-0.5,0.1-1.1,0.2-1.6c0,0,0-0.1,0-0.1
			c0-0.5,0.1-1,0.1-1.5c0-0.1,0-0.2,0-0.3c0-0.6,0-1.3-0.1-1.9c0-0.1,0-0.2,0-0.2c-0.1-0.6-0.1-1.2-0.2-1.8c0-0.1,0-0.2,0-0.2
			c-0.1-0.6-0.2-1.2-0.4-1.8c0-0.1,0-0.1-0.1-0.2c-0.2-0.6-0.3-1.2-0.6-1.8c0-0.1,0-0.1-0.1-0.2c-0.2-0.6-0.5-1.2-0.7-1.7
			c0,0,0-0.1-0.1-0.1c-0.3-0.6-0.6-1.1-0.9-1.7c0,0,0-0.1-0.1-0.1c-0.3-0.6-0.7-1.1-1-1.6c0,0,0,0,0-0.1c-0.4-0.5-0.8-1.1-1.2-1.6
			c0,0,0,0,0,0c-2.1-2.6-0.4-6.4,2.9-6.4h0h50.1v-8.4V568.8C1227.6,550.9,1213.1,536.4,1195.2,536.4z"/>
		<path id="XMLID_113_" fill="#8CC240" d="M1050.6,799.6c5.8,0,11-2,15.2-5.4c2.6-2.1,6.4-0.4,6.4,2.9v0c0-3.3-3.8-5-6.4-2.9
			C1061.7,797.6,1056.4,799.6,1050.6,799.6c-13.4,0-24.3-11.1-23.9-24.6C1026.3,788.6,1037.2,799.6,1050.6,799.6z"/>
		<path id="XMLID_114_" fill="#8CC240" d="M1180,713.4c0,0,0-0.1,0-0.1c0,0.1,0,0.2,0,0.3C1180,713.5,1180,713.5,1180,713.4z"/>
		<path id="XMLID_115_" fill="#8CC240" d="M1179.6,709.1c0,0.1,0,0.2,0,0.2C1179.6,709.2,1179.6,709.2,1179.6,709.1z"/>
		<path id="XMLID_116_" fill="#8CC240" d="M1178.5,705.1c0,0.1,0,0.1,0.1,0.2C1178.6,705.3,1178.5,705.2,1178.5,705.1z"/>
		<path id="XMLID_117_" fill="#8CC240" d="M1177.7,703.3c0,0,0,0.1,0.1,0.1C1177.8,703.4,1177.8,703.3,1177.7,703.3z"/>
		<path id="XMLID_118_" fill="#8CC240" d="M1175.8,699.8C1175.8,699.8,1175.8,699.9,1175.8,699.8
			C1175.8,699.9,1175.8,699.8,1175.8,699.8z"/>
		<path id="XMLID_119_" fill="#8CC240" d="M1179.9,715.1c0,0,0,0.1,0,0.1C1179.9,715.2,1179.9,715.1,1179.9,715.1z"/>
		<path id="XMLID_120_" fill="#8CC240" d="M1179.9,711.2c0,0.1,0,0.2,0,0.2C1179.9,711.3,1179.9,711.2,1179.9,711.2z"/>
		<path id="XMLID_121_" fill="#8CC240" d="M1179.1,707.1c0,0.1,0,0.1,0.1,0.2C1179.2,707.2,1179.2,707.1,1179.1,707.1z"/>
		<path id="XMLID_122_" fill="#8CC240" d="M1176.8,701.5c0,0,0,0.1,0.1,0.1C1176.9,701.6,1176.8,701.5,1176.8,701.5z"/>
		<path id="XMLID_123_" fill="#8CC240" d="M1132.5,709.1c0.1-0.6,0.2-1.2,0.4-1.8C1132.7,707.9,1132.6,708.5,1132.5,709.1z"/>
		<path id="XMLID_124_" fill="#8CC240" d="M1132.9,707.1c0.2-0.6,0.4-1.2,0.6-1.8C1133.3,705.9,1133.1,706.5,1132.9,707.1z"/>
		<path id="XMLID_125_" fill="#8CC240" d="M1134.6,691.8L1134.6,691.8c3.3,0,5,3.8,2.9,6.4c-0.4,0.5-0.8,1-1.2,1.6
			c0.4-0.5,0.8-1.1,1.2-1.6C1139.6,695.7,1137.9,691.8,1134.6,691.8z"/>
		<path id="XMLID_126_" fill="#8CC240" d="M1132.2,711.2c0.1-0.6,0.1-1.2,0.2-1.8C1132.3,709.9,1132.2,710.5,1132.2,711.2z"/>
		<path id="XMLID_127_" fill="#8CC240" d="M1135.2,701.5c0.3-0.6,0.7-1.1,1-1.7C1135.9,700.4,1135.6,700.9,1135.2,701.5z"/>
		<path id="XMLID_128_" fill="#8CC240" d="M1132.3,716.8c0.6,4.4,2.4,9.1,5.8,13.6c0.2,0.3,0.5,0.6,0.9,0.9
			c4.6,3.4,9.3,5.2,13.8,5.8C1142.2,735.7,1133.8,727.4,1132.3,716.8z"/>
		<path id="XMLID_129_" fill="#8CC240" d="M1134.3,703.3c0.3-0.6,0.6-1.1,0.9-1.7C1134.9,702.1,1134.6,702.7,1134.3,703.3z"/>
		<path id="XMLID_130_" fill="#8CC240" d="M1133.5,705.1c0.2-0.6,0.5-1.2,0.7-1.7C1134,704,1133.8,704.6,1133.5,705.1z"/>
		<path id="XMLID_131_" fill="#8CC240" d="M1157.8,737.3c-0.3,0-0.6,0-0.9,0.1C1157.2,737.3,1157.5,737.3,1157.8,737.3z"/>
		<path id="XMLID_132_" fill="#8CC240" d="M1179.7,716.8C1179.7,716.8,1179.7,716.8,1179.7,716.8
			C1179.7,716.8,1179.7,716.8,1179.7,716.8z"/>
		<path id="XMLID_133_" fill="#8CC240" d="M1156,737.3c-0.3,0-0.6,0-0.9,0C1155.4,737.3,1155.7,737.3,1156,737.3z"/>
		<path id="XMLID_134_" fill="#8CC240" d="M1154.3,737.3c-0.3,0-0.6,0-0.9-0.1C1153.7,737.2,1154,737.3,1154.3,737.3z"/>
		<path id="XMLID_135_" fill="#8CC240" d="M1159.3,737.1c-0.2,0-0.4,0.1-0.6,0.1C1158.9,737.2,1159.1,737.2,1159.3,737.1z"/>
		<path id="XMLID_191_" fill="#8CC240" d="M1132.1,715.1c0-0.5-0.1-1-0.1-1.5C1132.1,714.1,1132.1,714.6,1132.1,715.1z"/>
		<path id="XMLID_192_" fill="#8CC240" d="M1132.3,716.8c-0.1-0.5-0.1-1.1-0.2-1.6C1132.2,715.7,1132.2,716.3,1132.3,716.8z"/>
		<path id="XMLID_193_" fill="#8CC240" d="M1132.1,713.3c0-0.6,0-1.3,0.1-1.9C1132.1,712,1132.1,712.6,1132.1,713.3z"/>
		<path id="XMLID_194_" fill="#8CC240" d="M1174.6,698.2C1174.6,698.2,1174.6,698.2,1174.6,698.2
			C1174.6,698.3,1174.6,698.2,1174.6,698.2c-2.1-2.6-0.4-6.4,3-6.4h0C1174.2,691.8,1172.5,695.7,1174.6,698.2z"/>
		<polygon id="XMLID_196_" fill="#8CC240" points="1035,775.7 1035,775.7 1035,775.7 		"/>
		
			<linearGradient id="XMLID_52_" gradientUnits="userSpaceOnUse" x1="1406.1724" y1="1879.5664" x2="1405.9214" y2="1879.3223" gradientTransform="matrix(4.489700e-11 -1 1 4.489700e-11 -844.3972 2181.7429)">
			<stop  offset="0" style="stop-color:#628F3E"/>
			<stop  offset="1" style="stop-color:#628F3E;stop-opacity:0"/>
		</linearGradient>
		<polygon id="XMLID_195_" fill="url(#XMLID_52_)" points="1035,775.7 1035,775.7 1035,775.7 		"/>
		<path id="XMLID_14_" fill="#8CC240" d="M1177.5,691.8c-3.3,0-5,3.8-2.9,6.4c0,0,0,0,0,0c0.4,0.5,0.8,1,1.2,1.6c0,0,0,0,0,0.1
			c0.4,0.5,0.7,1.1,1,1.6c0,0,0,0.1,0.1,0.1c0.3,0.5,0.6,1.1,0.9,1.7c0,0,0,0.1,0.1,0.1c0.3,0.6,0.5,1.1,0.7,1.7
			c0,0.1,0,0.1,0.1,0.2c0.2,0.6,0.4,1.2,0.6,1.8c0,0.1,0,0.1,0.1,0.2c0.2,0.6,0.3,1.2,0.4,1.8c0,0.1,0,0.2,0,0.2
			c0.1,0.6,0.2,1.2,0.2,1.8c0,0.1,0,0.2,0,0.2c0.1,0.6,0.1,1.2,0.1,1.9c0,0,0,0.1,0,0.1c0,0.1,0,0.1,0,0.2c0,0.5,0,1-0.1,1.5
			c0,0,0,0.1,0,0.1c0,0.5-0.1,1.1-0.2,1.6c0,0,0,0,0,0c-0.6,4.4-2.4,9.1-5.8,13.6c-0.2,0.3-0.5,0.6-0.9,0.9
			c-4.6,3.4-9.3,5.2-13.8,5.8c-0.2,0-0.4,0.1-0.6,0.1c-0.3,0-0.6,0.1-0.9,0.1c-0.3,0-0.6,0-0.9,0.1c-0.3,0-0.6,0-0.9,0
			c-0.3,0-0.6,0-0.9,0c-0.3,0-0.6,0-0.9-0.1c-0.3,0-0.6,0-0.9-0.1c-0.2,0-0.4-0.1-0.6-0.1c-4.5-0.6-9.2-2.4-13.8-5.8
			c-0.3-0.2-0.6-0.5-0.9-0.9c-3.3-4.5-5.2-9.2-5.8-13.6c0,0,0,0,0,0c-0.1-0.5-0.1-1.1-0.2-1.6c0,0,0-0.1,0-0.1c0-0.5-0.1-1-0.1-1.5
			c0-0.1,0-0.1,0-0.2c0,0,0-0.1,0-0.1c0-0.6,0-1.3,0.1-1.9c0-0.1,0-0.2,0-0.2c0.1-0.6,0.1-1.2,0.2-1.8c0-0.1,0-0.1,0-0.2
			c0.1-0.6,0.2-1.2,0.4-1.8c0-0.1,0-0.1,0.1-0.2c0.2-0.6,0.4-1.2,0.6-1.8c0-0.1,0-0.1,0.1-0.2c0.2-0.6,0.5-1.2,0.7-1.7
			c0,0,0-0.1,0.1-0.1c0.3-0.6,0.6-1.1,0.9-1.7c0,0,0-0.1,0-0.1c0.3-0.6,0.7-1.1,1-1.7c0,0,0,0,0,0c0.4-0.5,0.8-1.1,1.2-1.6
			c2.1-2.6,0.4-6.4-2.9-6.4h-58.5h0c-2.1,0-3.9,1.7-3.9,3.9v58.5v0c0,3.3-3.8,5-6.4,2.9c-8-6.6-20.4-8.1-32.2,0.6
			c-0.3,0.2-0.6,0.5-0.9,0.9c-4.1,5.5-5.9,11.2-6,16.5c-0.3,13.5,10.5,24.6,23.9,24.6c5.8,0,11-2,15.2-5.4c2.6-2.1,6.4-0.4,6.4,2.9
			v0v50.1h8.4h114.6c17.9,0,32.4-14.5,32.4-32.4V700.2v-8.4H1177.5z"/>
	</g>
	<g id="XMLID_2_">
		<path id="XMLID_65_" fill="#2D74B6" d="M362.5,590.9c-0.1-0.2-0.3-0.3-0.4-0.5s-0.3-0.3-0.5-0.4c-0.4-0.3-0.7-0.5-1.1-0.8
			c-1.1-0.7-2.2-1.4-3.2-1.9c0,0-0.1,0-0.1-0.1c0,0,0,0,0,0c-0.5-0.3-1-0.5-1.5-0.7c-1.9-0.9-3.9-1.5-5.8-1.9
			c-0.2-0.1-0.5-0.1-0.7-0.1c-0.6-0.1-1.2-0.2-1.9-0.3c0,0,0,0,0,0c-0.6-0.1-1.1-0.1-1.7-0.1c-0.5,0-1,0-1.5,0
			c-0.6,0-1.3,0.1-1.9,0.1c-0.1,0-0.1,0-0.2,0c-0.8,0.1-1.7,0.2-2.5,0.4c-0.4,0.1-0.7,0.2-1,0.2c-0.3,0.1-0.5,0.1-0.8,0.2
			c-0.5,0.2-1.1,0.3-1.6,0.5c-0.1,0-0.1,0-0.2,0.1c-0.4,0.1-0.7,0.3-1.1,0.4c-0.3,0.1-0.6,0.3-0.9,0.4c-0.5,0.2-0.9,0.5-1.4,0.7
			c-0.1,0-0.1,0.1-0.2,0.1c-0.8,0.5-1.5,1-2.2,1.5c0,0,0,0,0,0c-0.3,0.2-0.5,0.4-0.7,0.6c-2.6,2.1-6.4,0.4-6.4-2.9v0V585l0,0
			c0,0-2.7-5.2-8.2-12.1c-8.2-10.4-22.7-24.9-43.5-32.1c-3-1-6.1-1.9-9.4-2.6c2.4,7.3,1.4,16.1-4.8,24.6c-0.2,0.3-0.5,0.6-0.9,0.9
			c-19.6,14.5-41,0.8-41-17.9c0-1.5,0.1-3,0.4-4.4c-3,1-5.9,2.1-8.6,3.3c-36.4,16.2-47.5,51.1-50.6,73.6
			c-1.4,10.4-1.2,18.1-0.9,20.1c0.4,2.8-0.8,17.7,8.4,42c0.4,1,0.8,2.1,1.2,3.2c1.1,2.7,2.3,5.5,3.6,8.4h48.9c0.6,0,1.2-0.1,1.7-0.4
			c2.1-1,3-4,1.2-6c-3.4-4.1-5.4-9.4-5.4-15.1c0-5.4,1.8-11.3,6-17.1c0.2-0.3,0.5-0.6,0.9-0.9c19.6-14.5,41-0.8,41,17.9c0,0,0,0,0,0
			c0,0,0,0,0,0c0,5.8-2,11-5.4,15.2c-1.7,2.1-0.9,5,1.2,6c0.5,0.2,1.1,0.4,1.7,0.4h58.5c0,0,0,0,0,0c2.1,0,3.8-1.8,3.8-3.9v-58.5v0
			c0-3.3,3.8-5,6.4-2.9c0.1,0.1,0.2,0.2,0.3,0.2c1.5,1.2,3.1,2.2,4.8,3c0.2,0.1,0.5,0.2,0.7,0.3c0.4,0.2,0.8,0.3,1.2,0.5
			c0.1,0,0.2,0.1,0.3,0.1c1.2,0.4,2.4,0.8,3.7,1c0.3,0.1,0.6,0.1,1,0.1c1.1,0.1,2.2,0.2,3.3,0.2c2.9,0,5.7-0.5,8.3-1.5
			c1-0.4,2-0.8,3-1.4c1-0.5,1.9-1.1,2.8-1.7c0.9-0.6,1.7-1.3,2.5-2.1c0.4-0.4,0.8-0.8,1.1-1.2c0.7-0.8,1.4-1.6,2-2.5
			c1.2-1.8,2.2-3.7,3-5.8c0.9-2.6,1.4-5.4,1.3-8.4C368.4,602.1,366.6,596.4,362.5,590.9z"/>
		<path id="XMLID_63_" fill="#FFF200" d="M319.2,691.8C319.2,691.8,319.2,691.8,319.2,691.8l-58.6,0c-0.6,0-1.2-0.1-1.7-0.4
			c-2.1-1-3-3.9-1.3-6c3.4-4.1,5.4-9.4,5.4-15.2c0,0,0,0,0,0c0-18.7-21.4-32.4-41-17.9c-0.3,0.2-0.6,0.5-0.9,0.9
			c-4.2,5.7-6,11.6-6,17.1c0,5.8,2,11,5.4,15.2c1.7,2.1,0.9,5-1.3,6c-0.5,0.2-1.1,0.4-1.7,0.4h-48.9c0,0,0,0,0,0
			c1.3,2.8,2.7,5.6,4.3,8.6c18.9,35.7,58.5,84.6,141.6,141.2c2.7,1.9,5.5,3.8,8.4,5.6c0,0,0,0,0,0v-50.1c0-3.3-3.8-5-6.4-2.9
			c-4.1,3.4-9.4,5.4-15.2,5.4c-13.4,0-24.3-11.1-23.9-24.6c0.1-5.3,2-11,6-16.5c0.2-0.3,0.5-0.6,0.9-0.9c11.8-8.7,24.2-7.2,32.2-0.6
			c2.6,2.1,6.4,0.4,6.4-2.9v-58.5v0C323,693.6,321.3,691.9,319.2,691.8z"/>
		<path id="XMLID_61_" fill="#ED1C24" d="M489.6,618.3c-3.5-25.3-17-66.4-65.4-78.8c-48.4-12.4-79.1,15.7-92.8,33.1
			c-5.6,7.1-8.4,12.3-8.4,12.4v1.5v0c0,3.3,3.8,5,6.4,2.9c0.2-0.2,0.5-0.4,0.7-0.6c0,0,0,0,0,0c0.7-0.5,1.5-1,2.2-1.5
			c0.1,0,0.1-0.1,0.2-0.1c0.5-0.3,0.9-0.5,1.4-0.7c0.3-0.1,0.6-0.3,0.9-0.4c0.4-0.2,0.7-0.3,1.1-0.4c0.1,0,0.1,0,0.2-0.1
			c0.5-0.2,1-0.4,1.6-0.5c0.3-0.1,0.5-0.1,0.8-0.2c0.3-0.1,0.7-0.2,1-0.2c0.8-0.2,1.6-0.3,2.5-0.4c0.1,0,0.1,0,0.2,0
			c0.6-0.1,1.3-0.1,1.9-0.1c0.5,0,1,0,1.5,0c0.6,0,1.1,0.1,1.7,0.1c0,0,0,0,0,0c0.6,0.1,1.2,0.2,1.9,0.3c0.2,0,0.5,0.1,0.7,0.1
			c1.9,0.4,3.8,1,5.8,1.9c0.5,0.2,1,0.5,1.5,0.7c0,0,0,0,0,0c0,0,0.1,0,0.1,0.1c1.1,0.6,2.2,1.2,3.2,1.9c0.4,0.3,0.7,0.5,1.1,0.8
			c0.2,0.1,0.3,0.3,0.5,0.4c0.1,0.1,0.3,0.3,0.4,0.5c4.1,5.5,5.9,11.2,6,16.5c0,0.7,0,1.5,0,2.2c-0.1,2.2-0.6,4.2-1.2,6.2
			c-0.7,2.1-1.7,4.1-3,5.8c-0.6,0.9-1.3,1.7-2,2.5c-0.4,0.4-0.7,0.8-1.1,1.2c-0.8,0.7-1.6,1.4-2.5,2.1c-0.9,0.6-1.8,1.2-2.8,1.7
			c-1,0.5-2,1-3,1.4c-2.6,1-5.4,1.5-8.3,1.5c-1.1,0-2.2-0.1-3.3-0.2c-0.3,0-0.6-0.1-1-0.1c-1.3-0.2-2.5-0.6-3.7-1
			c-0.1,0-0.2-0.1-0.3-0.1c-0.4-0.1-0.8-0.3-1.2-0.5c-0.2-0.1-0.5-0.2-0.7-0.3c-1.7-0.8-3.3-1.8-4.8-3c-0.1-0.1-0.2-0.2-0.3-0.2
			c-2.6-2.1-6.4-0.4-6.4,2.9v0V688v0c0,2.1,1.7,3.9,3.9,3.9h58.5h0c3.3,0,5,3.8,2.9,6.4c-0.4,0.5-0.8,1-1.2,1.6c0,0,0,0,0,0
			c-0.4,0.5-0.7,1.1-1,1.7c0,0,0,0.1,0,0.1c-0.3,0.6-0.6,1.1-0.9,1.7c0,0,0,0.1-0.1,0.1c-0.3,0.6-0.5,1.1-0.7,1.7
			c0,0.1,0,0.1-0.1,0.2c-0.2,0.6-0.4,1.2-0.6,1.8c0,0.1,0,0.1-0.1,0.2c-0.2,0.6-0.3,1.2-0.4,1.8c0,0.1,0,0.1,0,0.2
			c-0.1,0.6-0.2,1.2-0.2,1.8c0,0.1,0,0.2,0,0.2c-0.1,0.6-0.1,1.3-0.1,1.9c0,0.1,0,0.2,0,0.3c0,0.5,0,1,0.1,1.5c0,0,0,0.1,0,0.1
			c0,0.5,0.1,1.1,0.2,1.6c0,0,0,0,0,0c1.5,10.5,9.9,18.8,20.4,20.3c0.2,0,0.4,0.1,0.6,0.1c0.3,0,0.6,0.1,0.9,0.1
			c0.3,0,0.6,0,0.9,0.1c0.3,0,0.6,0,0.9,0c0.3,0,0.6,0,0.9,0c0.3,0,0.6,0,0.9-0.1c0.3,0,0.6,0,0.9-0.1c0.2,0,0.4-0.1,0.6-0.1
			c10.5-1.5,18.9-9.8,20.4-20.3c0,0,0,0,0,0c0.1-0.5,0.1-1.1,0.2-1.6c0,0,0-0.1,0-0.1c0-0.5,0.1-1,0.1-1.5c0-0.1,0-0.2,0-0.3
			c0-0.6,0-1.3-0.1-1.9c0-0.1,0-0.2,0-0.2c-0.1-0.6-0.1-1.2-0.2-1.8c0-0.1,0-0.2,0-0.2c-0.1-0.6-0.2-1.2-0.4-1.8
			c0-0.1,0-0.1-0.1-0.2c-0.2-0.6-0.4-1.2-0.6-1.8c0-0.1,0-0.1-0.1-0.2c-0.2-0.6-0.5-1.2-0.7-1.7c0,0,0-0.1-0.1-0.1
			c-0.3-0.6-0.6-1.1-0.9-1.7c0,0,0-0.1-0.1-0.1c-0.3-0.6-0.7-1.1-1-1.6c0,0,0,0,0-0.1c-0.4-0.5-0.8-1.1-1.2-1.6c0,0,0,0,0,0
			c-2.1-2.6-0.4-6.4,2.9-6.4h0h48.9c1.4-2.9,2.6-5.7,3.7-8.4c0.5-1.3,1-2.5,1.4-3.7c9-24,7.8-38.7,8.2-41.5
			C490.8,636.3,491.1,628.6,489.6,618.3z"/>
		
			<linearGradient id="XMLID_53_" gradientUnits="userSpaceOnUse" x1="1406.1722" y1="1130.4271" x2="1405.9213" y2="1130.1831" gradientTransform="matrix(4.489700e-11 -1 1 4.489700e-11 -844.3972 2181.7429)">
			<stop  offset="0" style="stop-color:#628F3E"/>
			<stop  offset="1" style="stop-color:#628F3E;stop-opacity:0"/>
		</linearGradient>
		<polygon id="XMLID_258_" fill="url(#XMLID_53_)" points="285.9,775.7 285.9,775.7 285.9,775.7 		"/>
		<path id="XMLID_62_" fill="#8CC240" d="M428.4,691.8L428.4,691.8c-3.3,0-5.1,3.8-3,6.4c0,0,0,0,0,0c0.4,0.5,0.8,1,1.2,1.6
			c0,0,0,0,0,0.1c0.4,0.5,0.7,1.1,1,1.6c0,0,0,0.1,0.1,0.1c0.3,0.5,0.6,1.1,0.9,1.7c0,0,0,0.1,0.1,0.1c0.3,0.6,0.5,1.1,0.7,1.7
			c0,0.1,0,0.1,0.1,0.2c0.2,0.6,0.4,1.2,0.6,1.8c0,0.1,0,0.1,0.1,0.2c0.2,0.6,0.3,1.2,0.4,1.8c0,0.1,0,0.2,0,0.2
			c0.1,0.6,0.2,1.2,0.2,1.8c0,0.1,0,0.2,0,0.2c0.1,0.6,0.1,1.2,0.1,1.9c0,0.1,0,0.2,0,0.3c0,0.5,0,1-0.1,1.5c0,0,0,0.1,0,0.1
			c0,0.5-0.1,1.1-0.2,1.6c0,0,0,0,0,0c-0.6,4.4-2.4,9.1-5.8,13.6c-0.2,0.3-0.5,0.6-0.9,0.9c-4.6,3.4-9.3,5.2-13.8,5.8
			c-0.2,0-0.4,0.1-0.6,0.1c-0.3,0-0.6,0.1-0.9,0.1c-0.3,0-0.6,0-0.9,0.1c-0.3,0-0.6,0-0.9,0c-0.3,0-0.6,0-0.9,0
			c-0.3,0-0.6,0-0.9-0.1c-0.3,0-0.6,0-0.9-0.1c-0.2,0-0.4-0.1-0.6-0.1c-10.5-1.5-18.9-9.8-20.4-20.3c0,0,0,0,0,0
			c-0.1-0.5-0.1-1.1-0.2-1.6c0,0,0-0.1,0-0.1c0-0.5-0.1-1-0.1-1.5c0-0.1,0-0.1,0-0.2c0,0,0-0.1,0-0.1c0-0.6,0-1.3,0.1-1.9
			c0-0.1,0-0.2,0-0.2c0.1-0.6,0.1-1.2,0.2-1.8c0-0.1,0-0.1,0-0.2c0.1-0.6,0.2-1.2,0.4-1.8c0-0.1,0-0.1,0.1-0.2
			c0.2-0.6,0.4-1.2,0.6-1.8c0-0.1,0-0.1,0.1-0.2c0.2-0.6,0.5-1.2,0.7-1.7c0,0,0-0.1,0.1-0.1c0.3-0.6,0.6-1.1,0.9-1.7
			c0,0,0-0.1,0-0.1c0.3-0.6,0.7-1.1,1-1.7c0,0,0,0,0,0c0.4-0.5,0.8-1.1,1.2-1.6c2.1-2.6,0.4-6.4-2.9-6.4h0h-58.5h0
			c-2.1,0-3.9,1.7-3.9,3.9v58.5v0c0,3.3-3.8,5-6.4,2.9c-8-6.6-20.4-8.1-32.2,0.6c-0.3,0.2-0.6,0.5-0.9,0.9c-4.1,5.5-5.9,11.2-6,16.5
			c-0.3,13.5,10.5,24.6,23.9,24.6c5.8,0,11-2,15.2-5.4c2.6-2.1,6.4-0.4,6.4,2.9v50.1c2.8-1.9,5.6-3.8,8.4-5.6
			c83.2-56.7,122.8-105.7,141.7-141.4c1.5-2.9,2.9-5.7,4.2-8.4H428.4z"/>
	</g>
	<g id="XMLID_5_">
		<path id="XMLID_64_" fill="#2D74B6" d="M748.9,603.8c-0.6-3.4-1.9-6.9-4-10.3c-0.5-0.9-1.1-1.7-1.7-2.6c-0.1-0.2-0.3-0.3-0.4-0.5
			s-0.3-0.3-0.5-0.4c-1.5-1.1-2.9-2-4.4-2.7c0,0,0,0-0.1,0c-2.5-1.3-5-2.2-7.4-2.7c-0.1,0-0.3-0.1-0.4-0.1c-0.7-0.1-1.4-0.2-2-0.3
			c0,0,0,0,0,0c-1.1-0.1-2.1-0.2-3.2-0.1c0,0,0,0,0,0c-0.7,0-1.3,0.1-2,0.1c0,0-0.1,0-0.1,0c-0.6,0.1-1.3,0.2-1.9,0.3
			c0,0-0.1,0-0.1,0c-0.2,0-0.3,0.1-0.5,0.1c-0.2,0-0.4,0.1-0.5,0.1c-0.5,0.1-1.1,0.3-1.6,0.4c-0.1,0-0.2,0.1-0.3,0.1
			c-0.1,0-0.2,0.1-0.3,0.1c-0.2,0.1-0.4,0.1-0.6,0.2c-0.8,0.3-1.6,0.7-2.4,1.1c-0.1,0.1-0.2,0.1-0.3,0.1c-0.1,0.1-0.2,0.1-0.3,0.2
			c-0.2,0.1-0.4,0.2-0.5,0.3c-0.1,0.1-0.3,0.2-0.4,0.2c-0.1,0.1-0.3,0.2-0.4,0.3c-0.1,0.1-0.2,0.1-0.2,0.2c-0.2,0.1-0.4,0.3-0.6,0.4
			c0,0-0.1,0.1-0.1,0.1c-0.2,0.2-0.5,0.3-0.7,0.5c0,0,0,0,0,0c-0.3,0.2-0.5,0.4-0.7,0.6c-2.6,2.1-6.4,0.4-6.4-2.9v0v-50.1
			c-2.7,0-5.5,0.1-8.2,0.2c-79.2,4.1-142.8,67.6-147,146.8c-0.1,2.8-0.2,5.6-0.2,8.4h50.1c0.6,0,1.2-0.1,1.7-0.4c2.1-1,3-4,1.2-6
			c-3.4-4.1-5.4-9.4-5.4-15.2c0-5.4,1.8-11.3,6-17c0.2-0.3,0.5-0.6,0.9-0.9c14.4-10.6,29.8-6.1,36.9,4.5c1.5-2.7,3.1-5.2,4.9-7.7
			c12.8-17.8,33.5-29.5,56.9-30.2c0.7,0,1.5-0.1,2.2-0.1c4,0,7.9,0.3,11.7,0.9c4.5,0.7,8.9,1.9,13.2,3.4c3.5,1.3,6.9,2.8,10.1,4.6
			c0.2-0.2,0.5-0.3,0.7-0.5c0.9-0.6,1.7-1.3,2.5-2.1c0.6-0.6,1.2-1.2,1.7-1.8c0.3-0.4,0.6-0.7,0.9-1.1c0.5-0.7,1-1.4,1.4-2.1
			c0.8-1.4,1.5-2.9,2.1-4.5c0.7-2.1,1.2-4.3,1.3-6.6c0-0.6,0-1.2,0-1.7C749.2,606.2,749.1,605,748.9,603.8z"/>
		<path id="XMLID_82_" fill="#FFF200" d="M697.4,794.2c-4.1,3.4-9.4,5.4-15.2,5.4c-13.4,0-24.3-11.1-23.9-24.6c0.1-5.3,2-11,6-16.5
			c0.2-0.3,0.5-0.6,0.9-0.9c1.1-0.8,2.2-1.5,3.3-2.1c-2.6-1.5-5.2-3.1-7.6-4.9c-17.5-12.8-29.1-33.1-29.9-56.3
			c0-0.9-0.1-1.8-0.1-2.6c0-3.8,0.3-7.5,0.9-11.2c0.7-4.7,1.9-9.2,3.4-13.5c1.3-3.6,2.8-7,4.6-10.3c0,0,0,0,0,0
			c-7.1-10.6-22.5-15.1-36.9-4.5c-0.3,0.2-0.6,0.5-0.9,0.9c-4.2,5.7-6,11.6-6,17c0,5.8,2,11.1,5.4,15.2c1.7,2.1,0.9,5-1.3,6
			c-0.5,0.2-1.1,0.4-1.7,0.4h-50.1c0,0,0,0,0,0c0,2.9,0.1,5.7,0.2,8.6c0.8,15,3.8,29.5,8.6,43.1c1,2.8,2.1,5.6,3.2,8.4
			c15,1.7,25.7,17.2,19.3,33.5c1.9,2.5,3.9,5,5.9,7.3c5.4,6.3,11.2,12.1,17.5,17.5c2.3,2,4.7,3.9,7.1,5.7
			c16.3-6.5,31.8,4.3,33.5,19.3c2.8,1.2,5.7,2.3,8.5,3.3c13.6,4.8,28.1,7.7,43.1,8.5c2.8,0.1,5.6,0.2,8.4,0.2v-50.1
			C703.8,793.8,699.9,792.1,697.4,794.2z"/>
		<path id="XMLID_273_" fill="#ED1C24" d="M718.2,585.1c-0.1,0-0.2,0.1-0.3,0.1C718,585.2,718.1,585.2,718.2,585.1z"/>
		<path id="XMLID_274_" fill="#ED1C24" d="M711.6,588.4c-0.2,0.2-0.5,0.3-0.7,0.5C711.2,588.7,711.4,588.5,711.6,588.4z"/>
		<path id="XMLID_275_" fill="#ED1C24" d="M720.9,584.4c0,0-0.1,0-0.1,0C720.8,584.5,720.9,584.5,720.9,584.4z"/>
		<path id="XMLID_276_" fill="#ED1C24" d="M712.3,587.9c-0.2,0.1-0.4,0.3-0.6,0.4C711.9,588.1,712.1,588,712.3,587.9z"/>
		<path id="XMLID_277_" fill="#ED1C24" d="M713.9,586.9c-0.2,0.1-0.4,0.2-0.5,0.3C713.6,587.1,713.7,587,713.9,586.9z"/>
		<path id="XMLID_278_" fill="#ED1C24" d="M713,587.5c-0.1,0.1-0.3,0.2-0.4,0.3C712.7,587.6,712.8,587.6,713,587.5z"/>
		<path id="XMLID_279_" fill="#ED1C24" d="M714.5,586.6c-0.1,0.1-0.2,0.1-0.3,0.1C714.3,586.7,714.4,586.7,714.5,586.6z"/>
		<path id="XMLID_280_" fill="#ED1C24" d="M717.5,585.3c-0.2,0.1-0.4,0.1-0.6,0.2C717.1,585.5,717.3,585.4,717.5,585.3z"/>
		<path id="XMLID_281_" fill="#ED1C24" d="M720.3,584.6c-0.2,0-0.4,0.1-0.5,0.1C720,584.6,720.1,584.6,720.3,584.6z"/>
		<path id="XMLID_282_" fill="#ED1C24" d="M738,587.3C738,587.3,737.9,587.3,738,587.3C737.9,587.3,738,587.3,738,587.3z"/>
		<path id="XMLID_283_" fill="#ED1C24" d="M722.9,584.2C722.8,584.2,722.8,584.2,722.9,584.2C722.8,584.2,722.8,584.2,722.9,584.2z"
			/>
		<path id="XMLID_284_" fill="#ED1C24" d="M703.8,586.5L703.8,586.5c0,3.3,3.8,5,6.4,2.9c0.2-0.2,0.5-0.4,0.7-0.6
			c-0.3,0.2-0.5,0.4-0.7,0.6C707.6,591.6,703.8,589.8,703.8,586.5z"/>
		<path id="XMLID_285_" fill="#ED1C24" d="M739.4,627.4c0.9-0.6,1.7-1.3,2.5-2.1C741.1,626.1,740.3,626.7,739.4,627.4z"/>
		<path id="XMLID_286_" fill="#ED1C24" d="M730.5,584.6c-0.1,0-0.3-0.1-0.4-0.1C730.3,584.5,730.4,584.6,730.5,584.6z"/>
		<path id="XMLID_287_" fill="#ED1C24" d="M743.6,623.5c0.3-0.4,0.6-0.7,0.9-1.1C744.2,622.7,743.9,623.1,743.6,623.5z"/>
		<path id="XMLID_288_" fill="#ED1C24" d="M748,615.8c0.7-2.1,1.2-4.3,1.3-6.6C749.1,611.4,748.7,613.7,748,615.8z"/>
		<path id="XMLID_289_" fill="#ED1C24" d="M728.1,584.2C728.1,584.2,728,584.2,728.1,584.2C728,584.2,728.1,584.2,728.1,584.2z"/>
		<path id="XMLID_290_" fill="#ED1C24" d="M724.8,584C724.9,584,724.9,584,724.8,584C724.9,584,724.9,584,724.8,584z"/>
		<path id="XMLID_291_" fill="#ED1C24" d="M749.3,607.4c0,0.6,0,1.2,0,1.7C749.3,608.6,749.3,608,749.3,607.4z"/>
		<path id="XMLID_292_" fill="#ED1C24" d="M742.8,590.5c0.1,0.1,0.3,0.3,0.4,0.5c0.6,0.9,1.2,1.7,1.7,2.6c-0.5-0.9-1.1-1.7-1.7-2.6
			C743.1,590.8,743,590.6,742.8,590.5z"/>
		<path id="XMLID_293_" fill="#ED1C24" d="M739.4,627.4c-0.2,0.2-0.4,0.3-0.7,0.5l0,0C738.9,627.7,739.2,627.5,739.4,627.4z"/>
		<path id="XMLID_77_" fill="#ED1C24" d="M811.5,711.2c-0.1-0.6-0.1-1.2-0.2-1.8c0-0.1,0-0.2,0-0.2c-0.1-0.6-0.2-1.2-0.4-1.8
			c0-0.1,0-0.1-0.1-0.2c-0.2-0.6-0.3-1.2-0.6-1.8c0-0.1,0-0.1-0.1-0.2c-0.2-0.6-0.5-1.2-0.7-1.7c0,0,0-0.1-0.1-0.1
			c-0.3-0.6-0.6-1.1-0.9-1.7c0,0,0-0.1-0.1-0.1c-0.3-0.6-0.7-1.1-1-1.6c0,0,0,0,0-0.1c-0.4-0.5-0.8-1.1-1.2-1.6c0,0,0,0,0,0
			c-2.1-2.6-0.4-6.4,2.9-6.4h0h50.1c0-2.8-0.1-5.6-0.2-8.4c-4.2-79.1-67.6-142.6-146.8-146.8c-2.8-0.1-5.6-0.2-8.4-0.2v50.1
			c0,3.3,3.8,5,6.4,2.9c0.2-0.2,0.5-0.4,0.7-0.6c0,0,0,0,0,0c0.2-0.2,0.5-0.3,0.7-0.5c0,0,0.1-0.1,0.1-0.1c0.2-0.1,0.4-0.3,0.6-0.4
			c0.1-0.1,0.2-0.1,0.2-0.2c0.1-0.1,0.3-0.2,0.4-0.3c0.1-0.1,0.3-0.2,0.4-0.2c0.2-0.1,0.4-0.2,0.5-0.3c0.1-0.1,0.2-0.1,0.3-0.2
			c0.1-0.1,0.2-0.1,0.3-0.1c0.8-0.4,1.6-0.7,2.4-1.1c0.2-0.1,0.4-0.1,0.6-0.2c0.1,0,0.2-0.1,0.3-0.1c0.1,0,0.2-0.1,0.3-0.1
			c0.5-0.2,1.1-0.3,1.6-0.4c0.2,0,0.4-0.1,0.5-0.1c0.2,0,0.3-0.1,0.5-0.1c0,0,0.1,0,0.1,0c0.6-0.1,1.3-0.2,1.9-0.3c0,0,0.1,0,0.1,0
			c0.7-0.1,1.3-0.1,2-0.1c0,0,0,0,0,0c1,0,2.1,0,3.2,0.1c0,0,0,0,0,0c0.7,0.1,1.4,0.2,2,0.3c0.1,0,0.3,0.1,0.4,0.1
			c2.4,0.5,4.9,1.4,7.4,2.7c0,0,0,0,0.1,0c1.5,0.8,2.9,1.7,4.4,2.7c0.2,0.1,0.3,0.3,0.5,0.4s0.3,0.3,0.4,0.5
			c0.6,0.9,1.2,1.7,1.7,2.6c2.1,3.5,3.4,6.9,4,10.3c0.2,1.2,0.3,2.4,0.3,3.6c0,0.6,0,1.2,0,1.7c-0.1,2.3-0.5,4.5-1.3,6.6
			c-0.5,1.6-1.2,3.1-2.1,4.5c-0.4,0.7-0.9,1.4-1.4,2.1c-0.3,0.4-0.6,0.8-0.9,1.1c-0.5,0.6-1.1,1.3-1.7,1.8c-0.8,0.7-1.6,1.4-2.5,2.1
			c-0.2,0.2-0.4,0.3-0.7,0.5c2.6,1.4,5.2,3,7.6,4.8c17.8,12.8,29.5,33.4,30.3,56.7c0,0.8,0.1,1.6,0.1,2.5c0,3.9-0.3,7.7-0.9,11.4
			c-0.7,4.6-1.9,9.1-3.4,13.4c-1.3,3.5-2.8,6.9-4.6,10.1c3.7,5.5,9.7,9.4,16.6,10.3c0.2,0,0.4,0.1,0.6,0.1c0.3,0,0.6,0.1,0.9,0.1
			c0.3,0,0.6,0,0.9,0.1c0.3,0,0.6,0,0.9,0c0.3,0,0.6,0,0.9,0c0.3,0,0.6,0,0.9-0.1c0.3,0,0.6,0,0.9-0.1c0.2,0,0.4-0.1,0.6-0.1
			c10.5-1.5,18.9-9.8,20.4-20.3c0,0,0,0,0,0c0.1-0.5,0.1-1.1,0.2-1.6c0,0,0-0.1,0-0.1c0-0.5,0.1-1,0.1-1.5c0-0.1,0-0.2,0-0.3
			c0-0.6,0-1.3-0.1-1.9C811.5,711.3,811.5,711.2,811.5,711.2z"/>
		
			<linearGradient id="XMLID_55_" gradientUnits="userSpaceOnUse" x1="1406.1724" y1="1511.1461" x2="1405.9214" y2="1510.902" gradientTransform="matrix(4.489700e-11 -1 1 4.489700e-11 -844.3972 2181.7429)">
			<stop  offset="0" style="stop-color:#628F3E"/>
			<stop  offset="1" style="stop-color:#628F3E;stop-opacity:0"/>
		</linearGradient>
		<polygon id="XMLID_316_" fill="url(#XMLID_55_)" points="666.6,775.7 666.6,775.7 666.6,775.7 		"/>
		<path id="XMLID_78_" fill="#8CC240" d="M809.1,691.8L809.1,691.8c-3.3,0-5.1,3.8-3,6.4c0,0,0,0,0,0c0.4,0.5,0.8,1,1.2,1.6
			c0,0,0,0,0,0.1c0.4,0.5,0.7,1.1,1,1.6c0,0,0,0.1,0.1,0.1c0.3,0.5,0.6,1.1,0.9,1.7c0,0,0,0.1,0.1,0.1c0.3,0.6,0.5,1.1,0.7,1.7
			c0,0.1,0,0.1,0.1,0.2c0.2,0.6,0.4,1.2,0.6,1.8c0,0.1,0,0.1,0.1,0.2c0.2,0.6,0.3,1.2,0.4,1.8c0,0.1,0,0.2,0,0.2
			c0.1,0.6,0.2,1.2,0.2,1.8c0,0.1,0,0.2,0,0.2c0.1,0.6,0.1,1.2,0.1,1.9c0,0.1,0,0.2,0,0.3c0,0.5,0,1-0.1,1.5c0,0,0,0.1,0,0.1
			c0,0.5-0.1,1.1-0.2,1.6c0,0,0,0,0,0c-0.6,4.4-2.4,9.1-5.8,13.6c-0.2,0.3-0.5,0.6-0.9,0.9c-4.6,3.4-9.3,5.2-13.8,5.8
			c-0.2,0-0.4,0.1-0.6,0.1c-0.3,0-0.6,0.1-0.9,0.1c-0.3,0-0.6,0-0.9,0.1c-0.3,0-0.6,0-0.9,0c-0.3,0-0.6,0-0.9,0
			c-0.3,0-0.6,0-0.9-0.1c-0.3,0-0.6,0-0.9-0.1c-0.2,0-0.4-0.1-0.6-0.1c-0.4-0.1-0.9-0.1-1.3-0.2c-6.3-1.2-11.8-5-15.2-10.1
			c-0.1,0.1-0.1,0.3-0.2,0.4c-1.4,2.5-2.9,4.9-4.6,7.2c-12.8,17.8-33.3,29.5-56.7,30.3c-0.8,0-1.7,0.1-2.5,0.1
			c-3.9,0-7.7-0.3-11.4-0.9c-4.6-0.7-9.1-1.9-13.4-3.4c-3.7-1.3-7.2-2.9-10.5-4.8c-1.1,0.6-2.2,1.3-3.3,2.1
			c-0.3,0.2-0.6,0.5-0.9,0.9c-4.1,5.5-5.9,11.2-6,16.5c-0.3,13.5,10.5,24.6,23.9,24.6c5.8,0,11-2,15.2-5.4c2.6-2.1,6.4-0.4,6.4,2.9
			v50.1h0c2.8,0,5.6-0.1,8.4-0.2c79.1-4.2,142.6-67.6,146.8-146.8c0.1-2.8,0.2-5.6,0.2-8.4H809.1z"/>
	</g>
	<g id="XMLID_1391_">
		<path id="XMLID_73_" fill="#ED1C24" d="M1079.8,339.2c-0.2-0.2-0.4-0.4-0.6-0.6c-8.4-6.2-17.2-5.1-23-0.4
			c-1.8,1.5-4.6,0.3-4.6-2.1v-41.7c0-1.5-1.2-2.8-2.8-2.8l-41.7,0c-2.4,0-3.6-2.7-2.1-4.6c4.7-5.7,5.8-14.5-0.4-23
			c-0.2-0.2-0.4-0.4-0.6-0.6c-14-10.3-29.2-0.6-29.2,12.8c0,4.1,1.5,7.9,3.9,10.8c1.5,1.8,0.3,4.6-2.1,4.6h-41.7
			c-1.5,0-2.8,1.2-2.8,2.8l0,41.7c0,2.4-2.7,3.6-4.6,2.1c-5.7-4.7-14.5-5.8-23,0.4c-0.2,0.2-0.4,0.4-0.6,0.6
			c-10.3,14-0.6,29.2,12.8,29.2c4.1,0,7.9-1.5,10.8-3.9c1.8-1.5,4.6-0.3,4.6,2.1v41.7c0,1.5,1.2,2.8,2.8,2.8h41.7
			c2.4,0,3.6,2.7,2.1,4.6c-4.7,5.7-5.8,14.5,0.4,23c0.2,0.2,0.4,0.4,0.6,0.6c14,10.3,29.2,0.6,29.2-12.8c0-4.1-1.5-7.9-3.9-10.8
			c-1.5-1.8-0.3-4.6,2.1-4.6h41.7c1.5,0,2.8-1.2,2.8-2.8v-41.7c0-2.4,2.7-3.6,4.6-2.1c2.9,2.4,6.7,3.9,10.8,3.9
			C1080.4,368.4,1090.1,353.2,1079.8,339.2z"/>
		<path id="XMLID_76_" fill="#FFF200" d="M1024.2,219c8.4-6.2,17.2-5.1,23-0.4c1.8,1.5,4.6,0.3,4.6-2.1v-41.7c0-1.5-1.2-2.8-2.8-2.8
			h-41.7c-2.4,0-3.6-2.7-2.1-4.6c2.4-2.9,3.9-6.7,3.9-10.8c0-13.3-15.3-23.1-29.2-12.8c-0.2,0.2-0.4,0.4-0.6,0.6
			c-6.2,8.4-5.1,17.2-0.4,23c1.5,1.8,0.3,4.6-2.1,4.6h-41.7c-1.5,0-2.8,1.2-2.8,2.8v41.7c0,2.4,2.7,3.6,4.6,2.1
			c2.9-2.4,6.7-3.9,10.8-3.9c13.3,0,23.1,15.3,12.8,29.2c-0.2,0.2-0.4,0.4-0.6,0.6c-8.4,6.2-17.2,5.1-23,0.4
			c-1.8-1.5-4.6-0.3-4.6,2.1v41.7c0,1.5,1.2,2.8,2.8,2.8h41.7c2.4,0,3.6-2.7,2.1-4.6c-4.7-5.7-5.8-14.5,0.4-23
			c0.2-0.2,0.4-0.4,0.6-0.6c14-10.3,29.2-0.6,29.2,12.8c0,4.1-1.5,7.9-3.9,10.8c-1.5,1.8-0.3,4.6,2.1,4.6h41.7
			c1.5,0,2.8-1.2,2.8-2.8v-41.7c0-2.4-2.7-3.6-4.6-2.1c-2.9,2.4-6.7,3.9-10.8,3.9c-13.3,0-23.1-15.3-12.8-29.2
			C1023.7,219.4,1023.9,219.2,1024.2,219z"/>
		<path id="XMLID_74_" fill="#2D74B6" d="M1143.7,338.6c8.4-6.2,17.3-5.1,23-0.4c1.8,1.5,4.6,0.3,4.6-2.1v-41.7
			c0-1.5-1.2-2.8-2.8-2.8h-41.7c-2.4,0-3.6,2.7-2.1,4.6c4.7,5.7,5.8,14.5-0.4,23c-0.2,0.2-0.4,0.4-0.6,0.6
			c-14,10.3-29.2,0.6-29.2-12.8c0-4.1,1.5-7.9,3.9-10.8c1.5-1.8,0.3-4.5-2.1-4.5h-41.7c-1.5,0-2.8,1.2-2.8,2.8v41.7
			c0,2.4,2.7,3.6,4.6,2.1c5.7-4.7,14.5-5.8,23,0.4c0.2,0.2,0.4,0.4,0.6,0.6c10.3,14,0.6,29.2-12.8,29.2c-4.1,0-7.9-1.5-10.8-3.9
			c-1.8-1.5-4.5-0.3-4.5,2.1v41.7c0,1.5,1.2,2.8,2.8,2.8h41.7c2.4,0,3.6,2.7,2.1,4.6c-4.7,5.7-5.8,14.5,0.4,23
			c0.2,0.2,0.4,0.4,0.6,0.6c14,10.3,29.2,0.6,29.2-12.8c0-4.1-1.5-7.9-3.9-10.8c-1.5-1.8-0.3-4.5,2.1-4.5h41.7
			c1.5,0,2.8-1.2,2.8-2.8v-41.7c0-2.4-2.7-3.6-4.5-2.1c-2.9,2.4-6.7,3.9-10.8,3.9c-13.3,0-23.1-15.3-12.8-29.2
			C1143.3,338.9,1143.5,338.7,1143.7,338.6z"/>
		<path id="XMLID_75_" fill="#8CC240" d="M1227.6,175.5c-4.1,0-7.9,1.5-10.8,3.9c-1.8,1.5-4.6,0.3-4.6-2.1v-41.7
			c0-1.5-1.2-2.8-2.8-2.8h-41.7c-2.4,0-3.6,2.7-2.1,4.6c4.7,5.7,5.8,14.5-0.4,23c-0.2,0.2-0.4,0.4-0.6,0.6
			c-14,10.3-29.2,0.6-29.2-12.8c0-4.1,1.5-7.9,3.9-10.8c1.5-1.8,0.3-4.6-2.1-4.6h-41.7c-1.5,0-2.8,1.2-2.8,2.8v41.7
			c0,2.4-2.7,3.6-4.6,2.1c-5.7-4.7-14.5-5.8-23,0.4c-0.2,0.2-0.4,0.4-0.6,0.6c-10.3,14-0.6,29.2,12.8,29.2c4.1,0,7.9-1.5,10.8-3.9
			c1.8-1.5,4.6-0.3,4.6,2.1v41.7c0,1.5,1.2,2.8,2.8,2.8h41.7c2.4,0,3.6,2.7,2.1,4.6c-4.7,5.7-5.8,14.5,0.4,23
			c0.2,0.2,0.4,0.4,0.6,0.6c14,10.3,29.2,0.6,29.2-12.8c0-4.1-1.5-7.9-3.9-10.8c-1.5-1.8-0.3-4.6,2.1-4.6h41.7
			c1.5,0,2.8-1.2,2.8-2.8v-41.7c0-2.4,2.7-3.6,4.6-2.1c5.7,4.7,14.5,5.8,23-0.4c0.2-0.2,0.4-0.4,0.6-0.6
			C1250.7,190.7,1240.9,175.5,1227.6,175.5z"/>
	</g>
	<g id="XMLID_6_">
		<path id="XMLID_7_" fill="none" d="M355.7,223c0-0.2-0.1-0.4-0.2-0.6C355.6,222.5,355.7,222.7,355.7,223z"/>
		<path id="XMLID_21_" fill="none" d="M347.9,211.9c-2.1-1.1-4.2-1.8-6.2-2.1C343.8,210.2,345.9,210.9,347.9,211.9z"/>
		<path id="XMLID_22_" fill="none" d="M294.9,336.2c-0.2,0.2-0.5,0.4-0.6,0.6c-3,4-4.3,8.2-4.4,12c0.1-3.9,1.4-8,4.4-12
			C294.5,336.6,294.7,336.4,294.9,336.2c2.6-1.9,5.1-3.1,7.7-3.7c0,0,0,0,0,0C300,333.1,297.5,334.3,294.9,336.2z"/>
		<path id="XMLID_23_" fill="none" d="M248.4,283.5c1.2,1.5,0.7,3.6-0.9,4.4C249.1,287.1,249.7,285,248.4,283.5
			c-2.5-3-4-6.9-3.9-11.2C244.5,276.6,245.9,280.4,248.4,283.5z"/>
		<path id="XMLID_24_" fill="none" d="M351.2,214c-0.9-0.7-1.9-1.3-2.8-1.8C349.3,212.7,350.2,213.3,351.2,214
			c0.2,0.2,0.4,0.4,0.6,0.6C351.6,214.3,351.4,214.1,351.2,214z"/>
		<path id="XMLID_25_" fill="none" d="M341.5,209.8c-1-0.1-1.9-0.2-2.8-0.2C339.6,209.6,340.6,209.7,341.5,209.8z"/>
		<path id="XMLID_26_" fill="none" d="M332.6,210.7c-0.1,0.1-0.3,0.1-0.4,0.2C332.3,210.8,332.5,210.7,332.6,210.7z"/>
		<path id="XMLID_27_" fill="none" d="M328.8,212.7C328.8,212.7,328.8,212.7,328.8,212.7C328.8,212.7,328.8,212.7,328.8,212.7z"/>
		<path id="XMLID_28_" fill="none" d="M337.6,209.6c0.3,0,0.5,0,0.8,0C338.1,209.6,337.9,209.6,337.6,209.6z"/>
		<path id="XMLID_29_" fill="none" d="M383.5,321.3c-0.2,0-0.4,0-0.6,0C383.1,321.3,383.3,321.3,383.5,321.3z"/>
		<path id="XMLID_30_" fill="none" d="M335.4,209.9c-0.1,0-0.2,0-0.3,0.1C335.3,209.9,335.4,209.9,335.4,209.9z"/>
		<path id="XMLID_31_" fill="none" d="M334,210.2c-0.2,0.1-0.4,0.1-0.6,0.2C333.6,210.4,333.8,210.3,334,210.2z"/>
		<path id="XMLID_32_" fill="none" d="M382.2,321.2c-0.2,0-0.3,0-0.5-0.1C381.9,321.2,382.1,321.2,382.2,321.2z"/>
		<path id="XMLID_33_" fill="none" d="M399.6,295.7c0.1,0.3,0.3,0.5,0.4,0.8C399.8,296.2,399.7,296,399.6,295.7z"/>
		<path id="XMLID_34_" fill="none" d="M400.2,297.1c0.1,0.3,0.2,0.5,0.3,0.8C400.4,297.6,400.3,297.3,400.2,297.1z"/>
		<path id="XMLID_35_" fill="none" d="M401.1,299.9c0.1,0.3,0.1,0.5,0.2,0.8C401.3,300.4,401.2,300.1,401.1,299.9z"/>
		<path id="XMLID_36_" fill="none" d="M400.7,298.4c0.1,0.3,0.2,0.5,0.2,0.8C400.9,299,400.8,298.7,400.7,298.4z"/>
		<path id="XMLID_37_" fill="none" d="M397.8,293c0.3,0.3,0.5,0.6,0.7,1C398.3,293.6,398,293.3,397.8,293z"/>
		<path id="XMLID_38_" fill="none" d="M398.8,294.4c0.2,0.3,0.3,0.5,0.5,0.8C399.1,294.9,399,294.7,398.8,294.4z"/>
		<path id="XMLID_39_" fill="none" d="M401.4,301.4c0,0.3,0.1,0.5,0.1,0.8C401.5,301.9,401.5,301.6,401.4,301.4z"/>
		<path id="XMLID_40_" fill="none" d="M384.8,321.3c-0.2,0-0.4,0-0.6,0C384.4,321.3,384.6,321.3,384.8,321.3z"/>
		<path id="XMLID_41_" fill="none" d="M401.4,306.5c0,0.3-0.1,0.6-0.2,0.9C401.3,307,401.4,306.7,401.4,306.5z"/>
		<path id="XMLID_42_" fill="none" d="M386.1,321.2c-0.2,0-0.4,0-0.7,0.1C385.6,321.3,385.9,321.2,386.1,321.2z"/>
		<path id="XMLID_43_" fill="none" d="M401.6,302.9c0,0.3,0,0.5,0,0.8C401.6,303.4,401.6,303.2,401.6,302.9z"/>
		<path id="XMLID_44_" fill="none" d="M401.6,304.8c0,0.1,0,0.2,0,0.3C401.6,305,401.6,304.9,401.6,304.8z"/>
		<path id="XMLID_45_" fill="none" d="M336.9,209.7c-0.2,0-0.3,0.1-0.5,0.1C336.6,209.7,336.7,209.7,336.9,209.7z"/>
		<path id="XMLID_46_" fill="none" d="M386.6,321.2c3.3-0.4,6.7-1.8,10-4.2c0.2-0.2,0.5-0.4,0.6-0.6c2.1-2.9,3.4-5.8,4-8.6
			C399.6,314.7,393.8,320.2,386.6,321.2z"/>
		<path id="XMLID_49_" fill="#2D74B6" d="M355.7,222.9c0-0.2-0.1-0.4-0.2-0.6c-0.3-1.2-0.8-2.4-1.3-3.7c-0.6-1.4-1.5-2.7-2.4-4
			c0,0,0,0,0,0c-0.2-0.2-0.4-0.4-0.6-0.6c-0.9-0.7-1.9-1.3-2.8-1.8c-0.1-0.1-0.3-0.2-0.4-0.2c-2.1-1.1-4.2-1.8-6.2-2.1
			c-0.1,0-0.2,0-0.2,0c-1-0.1-1.9-0.2-2.8-0.2c-0.1,0-0.2,0-0.3,0c-0.3,0-0.5,0-0.8,0c-0.2,0-0.5,0-0.7,0c-0.2,0-0.3,0.1-0.5,0.1
			c-0.3,0-0.6,0.1-1,0.1c-0.1,0-0.2,0-0.3,0.1c-0.4,0.1-0.8,0.2-1.2,0.3c-0.2,0.1-0.4,0.1-0.6,0.2c-0.3,0.1-0.5,0.2-0.8,0.3
			c-0.1,0.1-0.3,0.1-0.4,0.2c-1.2,0.5-2.3,1.1-3.4,1.8c0,0,0,0-0.1,0.1c-0.4,0.3-0.7,0.5-1.1,0.8c-1.9,1.5-4.7,0.3-4.7-2.1v0v-42.6
			c0-1.6-1.3-2.8-2.8-2.8h-42.6c-2.4,0-3.7,2.8-2.1,4.7c4.8,5.8,5.9,14.9-0.4,23.5c-0.2,0.2-0.4,0.5-0.6,0.6
			c-14.3,10.5-29.9,0.6-29.9-13.1c0-4.2,1.5-8,4-11c1.5-1.9,0.3-4.7-2.1-4.7h-42.6c-1.6,0-2.8,1.3-2.8,2.8v42.6
			c0,2.4-2.8,3.7-4.7,2.1c-5.9-4.9-15.1-5.9-23.8,0.7c-11,14.4-1,30.3,12.8,30.3c4.2,0,8-1.5,11-4c1.9-1.5,4.7-0.3,4.7,2.1v42.6
			c0,1.5,1.2,2.8,2.8,2.8c0,0,0,0,0,0h42.7c0.4,0,0.9-0.1,1.2-0.3c1.6-0.8,2.2-2.9,0.9-4.4c-2.5-3-4-6.9-3.9-11.2
			c0-3.9,1.3-8.2,4.4-12.3c0.2-0.2,0.4-0.5,0.6-0.6c3.7-2.7,7.5-4.1,11.1-4.4c0.5-2,1.2-4.1,2.1-6.1c3.3-7.8,9.7-15.6,21.8-18.7
			c16-4.1,27,3.5,33,9.9c3.7,3.9,5.6,7.4,5.6,7.4l0,0v-4.8v0c0-2.4,2.8-3.7,4.7-2.1c0.1,0.1,0.2,0.1,0.2,0.2
			c1.3-1.4,2.8-2.9,4.5-4.3c4.3-3.5,10.2-6.7,17.6-7.3c1.9-0.2,3.9-0.1,6,0.1c0,0,0,0,0,0c0.1-0.8,0.1-1.7,0.1-2.5
			C356.2,225.4,356,224.2,355.7,222.9z"/>
		<path id="XMLID_54_" fill="#FFF200" d="M318.4,362.8c-3,2.5-6.9,4-11.1,4c-9.8,0-17.7-8.1-17.5-17.9c0.1-3.9,1.4-8,4.4-12
			c0.2-0.2,0.4-0.5,0.6-0.6c2.5-1.9,5.1-3.1,7.7-3.7c-1.9-1.5-3.7-3-5.4-4.4c-40.1-34.3-37.6-58-37.9-60.2c-0.1-0.7-0.2-3,0.2-6.3
			c0.2-1.9,0.6-4.1,1.2-6.5c0,0,0,0,0,0c-3.6,0.3-7.4,1.6-11.1,4.4c-0.2,0.2-0.5,0.4-0.6,0.6c-3,4.1-4.3,8.4-4.4,12.3
			c0,4.2,1.4,8.1,3.9,11.2c1.2,1.5,0.6,3.7-0.9,4.4c-0.4,0.2-0.8,0.3-1.2,0.3h-42.7c0,0,0,0,0,0c-1.5,0-2.8,1.3-2.8,2.8v42.7
			c0,2.4,2.8,3.7,4.7,2.1c3-2.5,6.9-4,11.1-4c13.6,0,23.6,15.6,13,29.9c-0.2,0.2-0.4,0.5-0.6,0.6c-8.6,6.3-17.6,5.2-23.5,0.4
			c-1.9-1.5-4.7-0.3-4.7,2.1v42.7c0,1.6,1.3,2.8,2.8,2.8h42.7c2.4,0,3.7-2.8,2.1-4.7c-4.8-5.8-5.9-14.9,0.4-23.5
			c0.2-0.2,0.4-0.5,0.6-0.6c14.3-10.5,29.9-0.6,29.9,13.1c0,4.2-1.5,8.1-4,11.1c-1.5,1.9-0.3,4.7,2.1,4.7h42.7
			c1.6,0,2.8-1.3,2.8-2.8v-42.6C323,362.5,320.2,361.2,318.4,362.8z"/>
		<g id="XMLID_13_">
			<path id="XMLID_47_" fill="#ED1C24" d="M474,214.6c-0.2-0.2-0.4-0.5-0.6-0.6c-8.6-6.3-17.6-5.2-23.5-0.4
				c-1.9,1.5-4.7,0.3-4.7-2.1v-42.6c0-1.6-1.3-2.8-2.8-2.8h-42.6c-2.4,0-3.7-2.8-2.1-4.7c4.8-5.8,5.9-14.9-0.4-23.5
				c-0.2-0.2-0.4-0.5-0.6-0.6c-14.3-10.5-29.9-0.6-29.9,13.1c0,4.2,1.5,8,4,11c1.5,1.9,0.3,4.7-2.1,4.7h-42.6
				c-1.6,0-2.8,1.3-2.8,2.8v0v42.6v0c0,2.4,2.8,3.7,4.7,2.1c0.3-0.3,0.7-0.5,1.1-0.8c0,0,0,0,0.1-0.1c1-0.7,2.2-1.3,3.4-1.8
				c0.1-0.1,0.3-0.1,0.4-0.2c0.3-0.1,0.5-0.2,0.8-0.3c0.2-0.1,0.4-0.1,0.6-0.2c0.4-0.1,0.8-0.2,1.2-0.3c0.1,0,0.2,0,0.3-0.1
				c0.3-0.1,0.6-0.1,1-0.1c0.2,0,0.3-0.1,0.5-0.1c0.2,0,0.5,0,0.7,0c0.3,0,0.5,0,0.8,0c0.1,0,0.2,0,0.3,0c0.9,0,1.9,0.1,2.8,0.2
				c0.1,0,0.2,0,0.2,0c2,0.3,4.1,1,6.2,2.1c0.1,0.1,0.3,0.2,0.4,0.2c0.9,0.5,1.9,1.1,2.8,1.8c0.2,0.2,0.4,0.4,0.6,0.6c0,0,0,0,0,0
				c0.5,0.7,0.9,1.3,1.3,2c0.4,0.7,0.8,1.4,1.1,2c0.6,1.2,1,2.4,1.3,3.7c0.1,0.2,0.1,0.4,0.2,0.6c0.3,1.2,0.4,2.5,0.5,3.7
				c0,0.9,0,1.7-0.1,2.5c0,0,0,0,0,0c1.8,0.2,3.6,0.5,5.5,1c0.2,0,0.3,0.1,0.5,0.1c25.4,6.9,25.1,34.8,24.7,37.5
				c-0.2,1.7,1,14.8-14,35.2c-1.6,2.1-3.3,4.3-5.2,6.6c2.1,6.2,7.5,10.8,14.1,11.7c0.2,0,0.3,0,0.5,0.1c0.2,0,0.4,0,0.7,0.1
				c0.2,0,0.4,0,0.6,0c0.2,0,0.4,0,0.6,0c0.2,0,0.4,0,0.6,0c0.2,0,0.4,0,0.6,0c0.2,0,0.4,0,0.7-0.1c0.2,0,0.3,0,0.5-0.1
				c7.2-1,13.1-6.4,14.6-13.5c0-0.1,0-0.2,0.1-0.3c0.1-0.3,0.1-0.6,0.2-0.9c0.1-0.5,0.1-0.9,0.1-1.4c0-0.1,0-0.2,0-0.3
				c0-0.4,0-0.7,0-1.1c0-0.3,0-0.5,0-0.8c0-0.2,0-0.5,0-0.7c0-0.3-0.1-0.5-0.1-0.8c0-0.2-0.1-0.5-0.1-0.7c0-0.3-0.1-0.5-0.2-0.8
				c-0.1-0.2-0.1-0.4-0.2-0.7c-0.1-0.3-0.2-0.5-0.2-0.8c-0.1-0.2-0.1-0.4-0.2-0.6c-0.1-0.3-0.2-0.5-0.3-0.8
				c-0.1-0.2-0.2-0.4-0.2-0.6c-0.1-0.3-0.3-0.5-0.4-0.8c-0.1-0.2-0.2-0.4-0.3-0.5c-0.2-0.3-0.3-0.5-0.5-0.8
				c-0.1-0.1-0.2-0.3-0.3-0.4c-0.2-0.3-0.5-0.7-0.7-1c0-0.1-0.1-0.1-0.1-0.2c-1.5-1.9-0.3-4.7,2.1-4.7h0h42.6c1.6,0,2.8-1.3,2.8-2.8
				v-42.6c0-2.4,2.8-3.7,4.7-2.1c3,2.5,6.8,4,11,4C474.6,244.5,484.6,228.9,474,214.6z"/>
			<path id="XMLID_110_" fill="#ED1C24" d="M323,242.7L323,242.7v4.8c0,0,1.6-3.1,4.9-6.7c-0.1-0.1-0.2-0.1-0.2-0.2
				C325.8,239,323,240.3,323,242.7z"/>
		</g>
		
			<linearGradient id="XMLID_56_" gradientUnits="userSpaceOnUse" x1="1832.5753" y1="1140.4812" x2="1832.3562" y2="1140.2681" gradientTransform="matrix(4.489700e-11 -1 1 4.489700e-11 -844.3972 2181.7429)">
			<stop  offset="0" style="stop-color:#628F3E"/>
			<stop  offset="1" style="stop-color:#628F3E;stop-opacity:0"/>
		</linearGradient>
		<polygon id="XMLID_352_" fill="url(#XMLID_56_)" points="296,349.3 296,349.3 296,349.3 		"/>
		<path id="XMLID_66_" fill="#8CC240" d="M461,331.8c-4.2,0-8.1,1.5-11.1,4c-1.9,1.5-4.7,0.3-4.7-2.1V291c0-1.6-1.3-2.8-2.8-2.8h0
			h-42.6h0c-2.4,0-3.7,2.8-2.1,4.7c0,0.1,0.1,0.1,0.1,0.2c0.3,0.3,0.5,0.6,0.7,1c0.1,0.1,0.2,0.3,0.3,0.4c0.2,0.3,0.3,0.5,0.5,0.8
			c0.1,0.2,0.2,0.4,0.3,0.5c0.1,0.3,0.3,0.5,0.4,0.8c0.1,0.2,0.2,0.4,0.2,0.6c0.1,0.3,0.2,0.5,0.3,0.8c0.1,0.2,0.1,0.4,0.2,0.6
			c0.1,0.3,0.2,0.5,0.2,0.8c0.1,0.2,0.1,0.4,0.2,0.7c0.1,0.3,0.1,0.5,0.2,0.8c0,0.2,0.1,0.5,0.1,0.7c0,0.3,0.1,0.5,0.1,0.8
			c0,0.2,0,0.5,0,0.7c0,0.3,0,0.5,0,0.8c0,0.4,0,0.7,0,1.1c0,0.1,0,0.2,0,0.3c0,0.5-0.1,0.9-0.1,1.4c0,0.3-0.1,0.6-0.2,0.9
			c0,0.1,0,0.2-0.1,0.3c-0.6,2.8-1.9,5.7-4,8.6c-0.2,0.2-0.4,0.5-0.6,0.6c-3.4,2.5-6.8,3.8-10,4.2c-0.2,0-0.3,0-0.5,0.1
			c-0.2,0-0.4,0-0.7,0.1c-0.2,0-0.4,0-0.6,0c-0.2,0-0.4,0-0.6,0c-0.2,0-0.4,0-0.6,0c-0.2,0-0.4,0-0.6,0c-0.2,0-0.4,0-0.7-0.1
			c-0.2,0-0.3,0-0.5-0.1c-6.6-0.9-12-5.5-14.1-11.7c0,0,0,0,0,0c-1.4,1.6-2.9,3.3-4.5,5c-9.3,9.8-22.1,20.9-40.1,32.8
			c-4.6-3.1-8.9-6.1-12.9-9.1c-2.7-2-5.2-3.9-7.6-5.8c-2.5,0.7-5.1,1.9-7.7,3.7c-0.2,0.2-0.5,0.4-0.6,0.6c-3,4-4.3,8.1-4.4,12
			c-0.2,9.8,7.7,17.9,17.5,17.9c4.2,0,8.1-1.5,11.1-4c1.9-1.5,4.7-0.3,4.7,2.1v42.6v0c0,1.6,1.3,2.8,2.8,2.8h42.7
			c2.4,0,3.7,2.8,2.1,4.7c-4.8,5.8-5.9,14.9,0.4,23.5c0.2,0.2,0.4,0.5,0.6,0.6c14.3,10.5,29.9,0.6,29.9-13.1c0-4.2-1.5-8.1-4-11.1
			c-1.5-1.9-0.3-4.7,2.1-4.7h42.7c1.6,0,2.8-1.3,2.8-2.8v-42.7c0-2.4,2.8-3.7,4.7-2.1c5.8,4.8,14.9,5.9,23.5-0.4
			c0.2-0.2,0.5-0.4,0.6-0.6C484.6,347.4,474.6,331.8,461,331.8z"/>
	</g>
</g>
</svg>
