<svg xmlns="http://www.w3.org/2000/svg" version="1.1" xmlns:xlink="http://www.w3.org/1999/xlink" xmlns:svgjs="http://svgjs.com/svgjs" width="41.69" height="64.71"><svg xmlns="http://www.w3.org/2000/svg" version="1.1" xmlns:xlink="http://www.w3.org/1999/xlink" xmlns:svgjs="http://svgjs.com/svgjs" width="41.69" height="64.71" class="class-c5jnhzxjm"><svg xmlns="http://www.w3.org/2000/svg" viewBox="0 0 41.69 64.71" class="class-c5jnhzxjm">
    <g data-name="Layer 2">
        <g data-name="Layer 1">
            <path d="M8.1 15.67L18.51 0h6c11.4 0 17.18 7.21 17.18 14.78C41.69 28.48 28 27.59 28 38.36v2.4H15.88v-2.93c0-15.31 12-13.62 12-22.25 0-3.21-1.86-5-5.07-5-3 0-5.78 1.6-8.72 5.08zm7.92 49V49.22h6a7.75 7.75 0 010 15.49z" class="fill-color-1-shadow"></path>
            <path d="M21.1 10.79C19.84 8.91 17.13 7.6 14 7.6h-.54L8.1 15.67h6c2.37-2.81 4.63-4.37 7-4.88zM20.27 55c-1.23-.34-2.89.79-4.25 2.48v7.21h6A7.49 7.49 0 0029.59 57a8.09 8.09 0 00-.45-2.64c-2.53.55-6.58 1.28-8.87.64zM41.69 14.78a14.45 14.45 0 00-.65-4.3c-3.55.37-7.27-2.88-7.27-2.88S12.79 43.72 17.85 39c3.09-3 7.15-3.39 10.62-3.86 2.43-7.53 13.22-8.2 13.22-20.36z" class="fill-color-1-shadow-extra"></path>
            <path d="M35.69 14.78C35.69 28.48 22 27.59 22 38.36v2.4H9.88v-2.93c0-15.31 12-13.62 12-22.25 0-3.21-1.86-5-5.07-5-3 0-5.78 1.6-8.72 5.08L0 9.43C4.36 3.56 10.24 0 18.51 0c11.4 0 17.18 7.21 17.18 14.78zM23.59 57A7.49 7.49 0 0116 64.71 7.75 7.75 0 1123.59 57z" class="fill-color-0"></path>
        </g>
    </g>
</svg></svg><style>.class-c5jnhzxjm .fill-skin {
  fill: #f1d9b1;
}
.class-c5jnhzxjm .fill-skin-shadow {
  fill: #ebc78d;
}
.class-c5jnhzxjm .fill-hair {
  fill: #3a7152;
}
.class-c5jnhzxjm .fill-hair-shadow {
  fill: #34664a;
}
.class-c5jnhzxjm .fill-white {
  fill: #f0f0f0;
}
.class-c5jnhzxjm .fill-white-shadow {
  fill: #d8d8d8;
}
.class-c5jnhzxjm .fill-white-shadow-extra {
  fill: #c2c2c2;
}
.class-c5jnhzxjm .stop-color-white {
  stop-color: #f0f0f0;
}
.class-c5jnhzxjm .stop-color-white-shadow {
  stop-color: #d8d8d8;
}
.class-c5jnhzxjm .stop-color-white-shadow-extra {
  stop-color: #c2c2c2;
}
.class-c5jnhzxjm .stroke-white {
  stroke: #f0f0f0;
}
.class-c5jnhzxjm .stroke-white-shadow {
  stroke: #d8d8d8;
}
.class-c5jnhzxjm .stroke-white-shadow-extra {
  stroke: #b5b5b5;
}
.class-c5jnhzxjm .fill-yellow {
  fill: #eaea00;
}
.class-c5jnhzxjm .fill-yellow-shadow {
  fill: #dada00;
}
.class-c5jnhzxjm .fill-yellow-shadow-extra {
  fill: #cbcb00;
}
.class-c5jnhzxjm .stop-color-yellow {
  stop-color: #eaea00;
}
.class-c5jnhzxjm .stop-color-yellow-shadow {
  stop-color: #dada00;
}
.class-c5jnhzxjm .stop-color-yellow-shadow-extra {
  stop-color: #cbcb00;
}
.class-c5jnhzxjm .fill-green {
  fill: #3a7152;
}
.class-c5jnhzxjm .fill-green-shadow {
  fill: #34664a;
}
.class-c5jnhzxjm .fill-green-shadow-extra {
  fill: #2f5c42;
}
.class-c5jnhzxjm .stop-color-green {
  stop-color: #3a7152;
}
.class-c5jnhzxjm .stop-color-green-shadow {
  stop-color: #34664a;
}
.class-c5jnhzxjm .stop-color-green-shadow-extra {
  stop-color: #2f5c42;
}
.class-c5jnhzxjm .stroke-green {
  stroke: #3a7152;
}
.class-c5jnhzxjm .stroke-green-shadow {
  stroke: #34664a;
}
.class-c5jnhzxjm .stroke-green-shadow-extra {
  stroke: #2c553e;
}
.class-c5jnhzxjm .fill-red {
  fill: #ce3827;
}
.class-c5jnhzxjm .fill-red-shadow {
  fill: #b93223;
}
.class-c5jnhzxjm .fill-red-shadow-extra {
  fill: #a62d1f;
}
.class-c5jnhzxjm .stop-color-red {
  stop-color: #ce3827;
}
.class-c5jnhzxjm .stop-color-red-shadow {
  stop-color: #b93223;
}
.class-c5jnhzxjm .stop-color-red-shadow-extra {
  stop-color: #a62d1f;
}
.class-c5jnhzxjm .fill-orange {
  fill: #f09c25;
}
.class-c5jnhzxjm .fill-orange-shadow {
  fill: #e98f10;
}
.class-c5jnhzxjm .fill-orange-shadow-extra {
  fill: #d1800e;
}
.class-c5jnhzxjm .stop-color-orange {
  stop-color: #f09c25;
}
.class-c5jnhzxjm .stop-color-orange-shadow {
  stop-color: #e98f10;
}
.class-c5jnhzxjm .stop-color-orange-shadow-extra {
  stop-color: #d1800e;
}
.class-c5jnhzxjm .fill-blue {
  fill: #3b7ded;
}
.class-c5jnhzxjm .fill-blue-shadow {
  fill: #1f6bea;
}
.class-c5jnhzxjm .fill-blue-shadow-extra {
  fill: #145eda;
}
.class-c5jnhzxjm .stop-color-blue {
  stop-color: #3b7ded;
}
.class-c5jnhzxjm .stop-color-blue-shadow {
  stop-color: #1f6bea;
}
.class-c5jnhzxjm .stop-color-blue-shadow-extra {
  stop-color: #145eda;
}
.class-c5jnhzxjm .fill-color-0 {
  fill: #3a7152;
}
.class-c5jnhzxjm .fill-color-0-shadow {
  fill: #34664a;
}
.class-c5jnhzxjm .fill-color-0-shadow-extra {
  fill: #2c553e;
}
.class-c5jnhzxjm .stop-color-color-0 {
  stop-color: #3a7152;
}
.class-c5jnhzxjm .fill-color-1 {
  fill: #3a7152;
}
.class-c5jnhzxjm .fill-color-1-shadow {
  fill: #34664a;
}
.class-c5jnhzxjm .fill-color-1-shadow-extra {
  fill: #2c553e;
}
.class-c5jnhzxjm .fill-body-detail {
  fill: #ffffff;
}
.class-c5jnhzxjm .stroke-color-0 {
  stroke: #3a7152;
}
.class-c5jnhzxjm .stroke-color-0-shadow {
  stroke: #34664a;
}
.class-c5jnhzxjm .stroke-color-0-shadow-extra {
  stroke: #2c553e;
}
.class-c5jnhzxjm .stroke-color-1 {
  stroke: #3a7152;
}
.class-c5jnhzxjm .stroke-color-1-shadow {
  stroke: #34664a;
}
.class-c5jnhzxjm .stroke-color-1-shadow-extra {
  stroke: #2c553e;
}</style></svg>