<svg xmlns="http://www.w3.org/2000/svg" version="1.1" xmlns:xlink="http://www.w3.org/1999/xlink" xmlns:svgjs="http://svgjs.com/svgjs" width="-0.7018690629011417" height="-2.6144937238492734"><g transform="matrix(-0.0007324824337367348,0,0,-0.007578220711966845,1.317968099101563e-7,-8.982485724118305e-7)"><svg xmlns="http://www.w3.org/2000/svg" version="1.1" xmlns:xlink="http://www.w3.org/1999/xlink" xmlns:svgjs="http://svgjs.com/svgjs" width="958.206" height="345.001"><svg xmlns="http://www.w3.org/2000/svg" version="1.1" xmlns:xlink="http://www.w3.org/1999/xlink" xmlns:svgjs="http://svgjs.com/svgjs" width="958.206" height="345.001" class="class-t5eltzvnf"><svg xmlns="http://www.w3.org/2000/svg" height="345.001" width="958.206" class="class-t5eltzvnf">
    <path d="M910.94 164.501c-76.38 64.06-201.024 180.5-449 180.5s-525.537-116.628-449-180.5c262.867-219.37 1159.47-219.3 898 0z" fill-rule="evenodd" class="fill-color-0"></path>
</svg></svg><style>.class-t5eltzvnf .fill-skin {
  fill: #f1d9b1;
}
.class-t5eltzvnf .fill-skin-shadow {
  fill: #ebc78d;
}
.class-t5eltzvnf .fill-hair {
  fill: #2b292e;
}
.class-t5eltzvnf .fill-hair-shadow {
  fill: #272529;
}
.class-t5eltzvnf .fill-white {
  fill: #f0f0f0;
}
.class-t5eltzvnf .fill-white-shadow {
  fill: #d8d8d8;
}
.class-t5eltzvnf .fill-white-shadow-extra {
  fill: #c2c2c2;
}
.class-t5eltzvnf .stop-color-white {
  stop-color: #f0f0f0;
}
.class-t5eltzvnf .stop-color-white-shadow {
  stop-color: #d8d8d8;
}
.class-t5eltzvnf .stop-color-white-shadow-extra {
  stop-color: #c2c2c2;
}
.class-t5eltzvnf .stroke-white {
  stroke: #f0f0f0;
}
.class-t5eltzvnf .stroke-white-shadow {
  stroke: #d8d8d8;
}
.class-t5eltzvnf .stroke-white-shadow-extra {
  stroke: #b5b5b5;
}
.class-t5eltzvnf .fill-yellow {
  fill: #eaea00;
}
.class-t5eltzvnf .fill-yellow-shadow {
  fill: #dada00;
}
.class-t5eltzvnf .fill-yellow-shadow-extra {
  fill: #cbcb00;
}
.class-t5eltzvnf .stop-color-yellow {
  stop-color: #eaea00;
}
.class-t5eltzvnf .stop-color-yellow-shadow {
  stop-color: #dada00;
}
.class-t5eltzvnf .stop-color-yellow-shadow-extra {
  stop-color: #cbcb00;
}
.class-t5eltzvnf .fill-green {
  fill: #199c56;
}
.class-t5eltzvnf .fill-green-shadow {
  fill: #168c4d;
}
.class-t5eltzvnf .fill-green-shadow-extra {
  fill: #147e45;
}
.class-t5eltzvnf .stop-color-green {
  stop-color: #199c56;
}
.class-t5eltzvnf .stop-color-green-shadow {
  stop-color: #168c4d;
}
.class-t5eltzvnf .stop-color-green-shadow-extra {
  stop-color: #147e45;
}
.class-t5eltzvnf .stroke-green {
  stroke: #199c56;
}
.class-t5eltzvnf .stroke-green-shadow {
  stroke: #168c4d;
}
.class-t5eltzvnf .stroke-green-shadow-extra {
  stroke: #127540;
}
.class-t5eltzvnf .fill-red {
  fill: #ce3827;
}
.class-t5eltzvnf .fill-red-shadow {
  fill: #b93223;
}
.class-t5eltzvnf .fill-red-shadow-extra {
  fill: #a62d1f;
}
.class-t5eltzvnf .stop-color-red {
  stop-color: #ce3827;
}
.class-t5eltzvnf .stop-color-red-shadow {
  stop-color: #b93223;
}
.class-t5eltzvnf .stop-color-red-shadow-extra {
  stop-color: #a62d1f;
}
.class-t5eltzvnf .fill-orange {
  fill: #f09c25;
}
.class-t5eltzvnf .fill-orange-shadow {
  fill: #e98f10;
}
.class-t5eltzvnf .fill-orange-shadow-extra {
  fill: #d1800e;
}
.class-t5eltzvnf .stop-color-orange {
  stop-color: #f09c25;
}
.class-t5eltzvnf .stop-color-orange-shadow {
  stop-color: #e98f10;
}
.class-t5eltzvnf .stop-color-orange-shadow-extra {
  stop-color: #d1800e;
}
.class-t5eltzvnf .fill-blue {
  fill: #3b7ded;
}
.class-t5eltzvnf .fill-blue-shadow {
  fill: #1f6bea;
}
.class-t5eltzvnf .fill-blue-shadow-extra {
  fill: #145eda;
}
.class-t5eltzvnf .stop-color-blue {
  stop-color: #3b7ded;
}
.class-t5eltzvnf .stop-color-blue-shadow {
  stop-color: #1f6bea;
}
.class-t5eltzvnf .stop-color-blue-shadow-extra {
  stop-color: #145eda;
}
.class-t5eltzvnf .fill-color-0 {
  fill: #2b292e;
}
.class-t5eltzvnf .fill-color-0-shadow {
  fill: #272529;
}
.class-t5eltzvnf .fill-color-0-shadow-extra {
  fill: #211f22;
}
.class-t5eltzvnf .stop-color-color-0 {
  stop-color: #2b292e;
}
.class-t5eltzvnf .fill-color-1 {
  fill: #fefdf9;
}
.class-t5eltzvnf .fill-color-1-shadow {
  fill: #f7eecd;
}
.class-t5eltzvnf .fill-color-1-shadow-extra {
  fill: #edd88d;
}
.class-t5eltzvnf .fill-color-2 {
  fill: #b4cd7a;
}
.class-t5eltzvnf .fill-color-2-shadow {
  fill: #a6c462;
}
.class-t5eltzvnf .fill-color-2-shadow-extra {
  fill: #91b343;
}
.class-t5eltzvnf .fill-color-3 {
  fill: #26dc7b;
}
.class-t5eltzvnf .fill-color-3-shadow {
  fill: #20c86e;
}
.class-t5eltzvnf .fill-color-3-shadow-extra {
  fill: #1ba75c;
}
.class-t5eltzvnf .fill-body-detail {
  fill: #ffffff;
}
.class-t5eltzvnf .stroke-color-0 {
  stroke: #2b292e;
}
.class-t5eltzvnf .stroke-color-0-shadow {
  stroke: #272529;
}
.class-t5eltzvnf .stroke-color-0-shadow-extra {
  stroke: #211f22;
}
.class-t5eltzvnf .stroke-color-1 {
  stroke: #fefdf9;
}
.class-t5eltzvnf .stroke-color-1-shadow {
  stroke: #f7eecd;
}
.class-t5eltzvnf .stroke-color-1-shadow-extra {
  stroke: #edd88d;
}
.class-t5eltzvnf .stroke-color-2 {
  stroke: #b4cd7a;
}
.class-t5eltzvnf .stroke-color-2-shadow {
  stroke: #a6c462;
}
.class-t5eltzvnf .stroke-color-2-shadow-extra {
  stroke: #91b343;
}
.class-t5eltzvnf .stroke-color-3 {
  stroke: #26dc7b;
}
.class-t5eltzvnf .stroke-color-3-shadow {
  stroke: #20c86e;
}
.class-t5eltzvnf .stroke-color-3-shadow-extra {
  stroke: #1ba75c;
}</style></svg></g><g transform="matrix(-0.013110226070329002,0,0,-0.013110226070329004,0.08750449956644957,0.32681589294625724)"><svg xmlns="http://www.w3.org/2000/svg" version="1.1" xmlns:xlink="http://www.w3.org/1999/xlink" xmlns:svgjs="http://svgjs.com/svgjs" width="66.92" height="249.28000000000003" viewBox="0 0 83.65 311.6"><svg xmlns="http://www.w3.org/2000/svg" version="1.1" xmlns:xlink="http://www.w3.org/1999/xlink" xmlns:svgjs="http://svgjs.com/svgjs" width="83.65" height="311.6" class="class-zsqjp2e1u"><svg xmlns="http://www.w3.org/2000/svg" viewBox="0 0 83.65 311.6" class="class-zsqjp2e1u">
    <g data-name="Layer 2">
        <g data-name="Layer 1">
            <path d="M50.3 31.52c13.33-9.66 6-24 6-24z" class="fill-hair-shadow"></path>
            <path d="M28.85 270.88l2.89 20s-1.29 5.23-4.92 4.91c-2-.18-2.1-7.83-7.78-7.62 0 0 3.69-5.69 3-16.27z" class="fill-skin-shadow"></path>
            <path d="M32.56 291.71a10.77 10.77 0 00-1.12-4l-.18-.19v.09s-1.41 4.42-5 4.24c-2-.11-1.91-6.55-7.58-6.24a7 7 0 00-1.56.23c-1.62 9.69-17 17.6-17 17.6-.94 1.79 1.39 4.32 16.35 1.77a106.56 106.56 0 0016.79-4.57s-.26-6-.7-8.93z" class="fill-hair-shadow"></path>
            <path d="M70.43 283l.82 12.11s3-7.35 7.69-1.51a119.85 119.85 0 01-2.39-11.76c-.86-5.97-6.12 1.16-6.12 1.16z" class="fill-skin-shadow"></path>
            <path d="M55.82 124.86s7.13 58.42 8.94 72.27S75 269.88 80.5 283.29c0 0-1.63 4.1-12.5 1 0 0-5.85-5.39-16.32-75.36-2.14-14.28-14.68-61.18-16-61s-4.15 63.16-5.41 79.59c-1.25 16.28.74 45.66 1.49 55.35 0 0-18.88-2.23-18.41-4.2 9.3-39 2.55-101.26 1.37-152.75z" class="fill-color-1"></path>
            <path d="M56.39 202.9c.7 4.73.76 12-3.51 14.14l2 14.4C63.39 280.9 63 286.26 63 286.26c10.87 3.13 17.5-3 17.5-3C75 269.88 66.57 211 64.76 197.13s-8.94-72.27-8.94-72.27l-41 1c0 3.35.3 5.86.25 9.07a60.71 60.71 0 0028.73 5.66" class="fill-color-1-shadow"></path>
            <path d="M31.52 135l1.48-2.27 1.11 2.17A81.54 81.54 0 0057 130.21l-.54-5.32-41.87 1.29-.43 5.14S19.85 135 31.52 135z" class="fill-white"></path>
            <path d="M56.5 124.89l-5 .16-7.57 4.87.91 3.64A94.64 94.64 0 0057 130.21z" class="fill-skin-shadow"></path>
            <path d="M62 80s-11.25 15.42-4 46.9c0 0-25.65 11-44.89 1.69 0 0 8.63-22.32 13.25-81.1 0 0 28.73-12.41 48.05-6 0 0-.74 20.91-9.84 56.36 0 0-8.3 1-13.3-4.26" class="fill-color-0"></path>
            <path d="M42.45 54.8l3.34-2 4.07 9.2a36.81 36.81 0 008.37-22h-1.95zM62.47 62L58 89.37l-13.55-3.89S55.27 81.87 62.47 62z" class="fill-color-0-shadow"></path>
            <path d="M26.35 47.49S5.89 78 11.91 101.92a104.25 104.25 0 0015.24-5.65l17.71-29.4" class="fill-color-0"></path>
            <path d="M27.29 56.35S22.68 74 22.78 80l9.67 8.6-5.9 10.59c-5.68 1.73-7.79 2.86-14.64 2.77 0-.04-6.5-18.43 15.38-45.61z" class="fill-color-0-shadow"></path>
            <path d="M19.13 104.45S37 95.73 44 103.93c0 0 1.59 2 1.33 26.79A75.69 75.69 0 0058 126.9c-2.28-9.89-1-18 .78-24.94 3.42.86 10.87 2 10.87 2 7.53-22.52 4.76-62.42 4.76-62.42h-.07a24.07 24.07 0 00-5.39 9.83s-2.21 18-6.3 36.88c0 0-1.09 5-5.66 4.41l-18.77-3.12-12.41.69-4 .19" class="fill-color-0-shadow"></path>
            <path d="M20.1 83.05l-4.26-.48s-6 5.21-1.11 14.41l5.9-.85s4.82-6.8-.53-13.08z" class="fill-white"></path>
            <path d="M42.24 90s-20.42 3.13-23.38 3.61c0 0-4.91-3.76-1.39-10.06l19.39 2.62z" class="fill-skin"></path>
            <path d="M18.86 93.59c3-.48 23.38-3.61 23.38-3.61l-2.86-3.12a80.27 80.27 0 01-23.11.14 7.48 7.48 0 002.59 6.59z" class="fill-skin-shadow"></path>
            <path d="M30.42 84.29c9.77.19 32.1 1.34 32.1 1.34s4.8 4-2.5 11.29c0 0-22.24-4.21-39.29-11.06" class="fill-skin"></path>
            <path d="M22.63 86.6C39.68 93.46 60 96.92 60 96.92c2.41-2.42 3.5-4.47 3.88-6.13-35-1.05-40.38-7-44.62-12" class="fill-skin-shadow"></path>
            <path d="M59.69 85.52l3.84.11S67 92 61.47 99L57 98.11l-.76-1.91 1.65.3a13 13 0 001.8-10.98z" class="fill-white"></path>
            <path d="M47.6 84.9s2.5-2.89 8.2-3.48c0 0 4.69 2.54 5 6.08 0 0-1.07 3.29-3.59 2s-4-3.95-6.24-4.29a17.4 17.4 0 00-3.37-.31zM54.58 25.12l-11-4.26s.63 14.71-.69 17-4.52 3.54-4.52 3.54c-.21 3.54 4.12 13.43 4.12 13.43C43.63 54.26 57.64 41 57.64 41s-2.78-1.37-2.92-8.62-.14-11.26-.14-11.26" class="fill-skin"></path>
            <path d="M54.72 31.38c-.14-7.26-.14-10.26-.14-10.26l-11-.26S43.93 32 43.45 37c3.14 1.15 9.28 4.15 9.88 10.1 2.43-2.28 3.31-7 3.31-7s-1.78-1.47-1.92-8.72z" class="fill-skin-shadow"></path>
            <path d="M70.54 292.07c-.48 6.07-1.59 13.57-1.4 17.72 3.5 2.64 12.31 2.28 14.35-.35.77-1-1.28-15.74-5.95-19.68 0 0-6.08-1.58-7 2.31z" class="fill-hair-shadow"></path>
            <path d="M56.37 37.83s-7.8 7.63-11.72 8.92l-2.2 8 5.25-2.56 2.16 4.11s6.31-5.83 8.38-16.77zM38.49 43.12s-3.84 6.13-2 15.82L39 55.33l2.46-2.56s-2.79-4.92-2.97-9.65z" class="fill-color-0-shadow"></path>
            <path d="M43.35 35.87s-6.83.78-9.09 9.61l-1 9.85 4-3.87 5.17 3.34s-3.5-8.59-2-10.52 2.92-8.41 2.92-8.41z" class="fill-white"></path>
            <path d="M61 86.52s-2-3.86-5.2-5.1a10.93 10.93 0 00-4.49 3.48s3.71.88 5 2.2 5.55.9 4.69-.58zM27.48 86.36c1.62-2 2.94-2.07 2.94-2.07-2.51-2.77-6.54-7.45-6.54-7.45a13.89 13.89 0 00-8.52-1.76c6.38 4 2.4 7.78 7.28 11.53 3.08.7 4.23.51 4.84-.25z" class="fill-skin-shadow"></path>
            <path d="M31.81 282.84c-.67-8.66-2.11-34.18-1.75-50.84-3.95 11.16-5.69 24.69-13.91 31.38-2 14.28-3.51 17.1-3.51 17.1 4.68 5.24 19.17 2.36 19.17 2.36z" class="fill-color-1-shadow"></path>
            <path d="M32.56 291.71a10.77 10.77 0 00-1.12-4l-.18-.19v.09s-1.41 4.42-5 4.24c-2-.11-1.91-6.55-7.58-6.24a7 7 0 00-1.56.23c-1.62 9.69-17 17.6-17 17.6-.94 1.79 1.39 4.32 16.35 1.77a106.56 106.56 0 0016.79-4.57s-.26-6-.7-8.93z" class="fill-hair-shadow"></path>
            <path d="M33.32 300.63s-.11-2-.29-4.23c-4.81 1.8-4.18 3.38-8.48 5.07-4.67 1.82-16.34 3.35-16.34 3.35l-.57-.39A2.67 2.67 0 006 304a20.73 20.73 0 01-5.81-.49c-.89 1.79 1.52 4.26 16.37 1.73a106.56 106.56 0 0016.76-4.61zM83.49 309.44a4.65 4.65 0 00.12-2 5.23 5.23 0 01-2.77 1.88l-.51-1.32a1.84 1.84 0 00-1.71-1.15h-2.93a1.84 1.84 0 00-1.55.85l-1 1.58c-1.29-.13-3.45-.81-4-1.75v2.26c3.5 2.64 12.31 2.28 14.35-.35z" class="fill-white"></path>
            <path d="M36 19.24l.61 4.68a13.33 13.33 0 002.81 6.61l2.59 3.2a5.7 5.7 0 004.29 2.14 5.73 5.73 0 005-2.74l1.43-2.26a13.67 13.67 0 001.84-4.76L56 18.43S58.66 5.75 47 5 36 19.24 36 19.24z" class="fill-skin"></path>
            <path d="M46.54 5c-7.54-.45-10.16 5-11.08 9.32a35.16 35.16 0 0011.67 8c2.6 1.07 4.67 4.6 6.33 7.93a66.1 66.1 0 002-7.22l.43-4.61S58.77 5.76 46.54 5z" class="fill-skin-shadow"></path>
            <path d="M50.07 21.85c0 2.42 1.52 5.06 3.08 4.39 2.38-1 3.09-3.24 3.09-5.66s-1.38-3.11-3.09-3.11-3.08 1.96-3.08 4.38z" class="fill-skin-shadow"></path>
            <path d="M54.19 23c-.61-1 .05-1.89 0-3a1.61 1.61 0 00-.15-.6 3.42 3.42 0 00-.26-.46 4 4 0 00-.77-.87 3.62 3.62 0 00-1-.58 6.48 6.48 0 00-.63-.17c-.42-.09-.85-.15-1.27-.26L50 17h-.16a20.38 20.38 0 01-2.57-1 1.89 1.89 0 00.2.2 4.62 4.62 0 001.27.71l.42.17a13.51 13.51 0 001.71.5 20.82 20.82 0 01-8-.41h-.24c-.32-.09-.64-.19-.95-.3.23.18.47.36.72.53a12.74 12.74 0 001.1.6c.66.24 1.37.71.09.41h-.15a15.49 15.49 0 01-2.77-1.09 5.17 5.17 0 01-2.37-2.34c-.31 1.07-.83 2.11-1.05 3.2a28 28 0 00-.16 2.9V21.23a7.9 7.9 0 01-.12.83 5.93 5.93 0 01-.45 1.19c-3-4.79-6.23-12.7-1.05-17.21a5.32 5.32 0 00-.57.16c-2.95 1.18.45-1.35 1-1.91a13 13 0 013.6-2h.06l.44-.23a12.7 12.7 0 013.2-.48C43.13 1.18 40-.5 42 .15c1.82.63 3.77.92 5.62 1.5-.8-.55-.54-2.14-.15-1.5v.07a1.41 1.41 0 00.23.33l.3.26h.06l.32.23c.82.53 2 .77 2.48 1.62a6.57 6.57 0 011 .31 7.69 7.69 0 012.84 2l.27.32a15.41 15.41 0 013.43 8.46v.08a2.42 2.42 0 00.12.35v.09a1.57 1.57 0 00.41.61c-.07.41-.88-.15-1.07-.29-.16-.13-.32-.26-.47-.4 0 .47-.13 1-.17 1.43V15.95c-.11 2.49-1.77 4.82-2.89 7.12a1 1 0 01-.14-.07zM48.35 1.35z" class="fill-hair-shadow"></path>
            <path fill="none" stroke-miterlimit="10" stroke-width=".25" d="M39.9 23.84h5.44" class="stroke-color-1"></path>
            <path d="M45.06 22.74h3.28v2.19h-3.28zM39.19 22.74h3.28v2.19h-3.28z" class="fill-white"></path>
            <path d="M36.6 23.2a5.93 5.93 0 00.45-1.2 7.9 7.9 0 00.12-.83V21a28 28 0 01.16-2.9c.22-1.09.74-2.13 1.05-3.2a5.46 5.46 0 001.89 2.1c-2.36-3.46-1.8-9.82-1.8-9.82a5.91 5.91 0 00-2.47 4.5c-.26-5.76 5.13-7.91 5.13-7.91-1.34-.33-3.49.66-3.49.66 2.91-2.38 8-2.63 8-2.63l-2.29-.26a12.85 12.85 0 00-3.2.46l-.35.11h-.06a13 13 0 00-3.6 2c-.57.56-4 3.09-1 1.91a5.32 5.32 0 01.41-.02c-5.18 4.5-1.98 12.41 1.05 17.2z" class="fill-hair"></path>
            <path d="M42.9 17.14h-.01.01z" class="fill-color-1"></path>
            <path d="M38.47 7.18c-1.37.77-2.93 6.55-.89 10.05.25-.77.58-1.52.8-2.29a5.17 5.17 0 002.37 2.34 15.49 15.49 0 002.77 1.09h.15c1.28.3.57-.17-.09-.41a12.74 12.74 0 01-1.12-.67c-.25-.17-.49-.35-.72-.53.31.11.63.21.95.3h.24a20.82 20.82 0 008 .41c-13-.81-12.46-10.29-12.46-10.29z" class="fill-hair"></path>
            <path d="M40.21 9.54A6.42 6.42 0 0045 13.4s-3.18-2.32-4-4.9a.54.54 0 00-.73-.17c-.48.28-.06 1.21-.06 1.21zM50.3 5.34a5.06 5.06 0 012.12.19c-1.27-1.48-2.31-1-2.31-1s-.63 1.03.19.81z" class="fill-hair"></path>
            <circle cx="50.19" cy="7.16" r=".31" class="fill-hair"></circle>
        </g>
    </g>
</svg></svg><style>.class-zsqjp2e1u .fill-skin {
  fill: #f1d9b1;
}
.class-zsqjp2e1u .fill-skin-shadow {
  fill: #ebc78d;
}
.class-zsqjp2e1u .fill-hair {
  fill: #1e1d20;
}
.class-zsqjp2e1u .fill-hair-shadow {
  fill: #1b1a1d;
}
.class-zsqjp2e1u .fill-white {
  fill: #f0f0f0;
}
.class-zsqjp2e1u .fill-white-shadow {
  fill: #d8d8d8;
}
.class-zsqjp2e1u .fill-white-shadow-extra {
  fill: #c2c2c2;
}
.class-zsqjp2e1u .stop-color-white {
  stop-color: #f0f0f0;
}
.class-zsqjp2e1u .stop-color-white-shadow {
  stop-color: #d8d8d8;
}
.class-zsqjp2e1u .stop-color-white-shadow-extra {
  stop-color: #c2c2c2;
}
.class-zsqjp2e1u .stroke-white {
  stroke: #f0f0f0;
}
.class-zsqjp2e1u .stroke-white-shadow {
  stroke: #d8d8d8;
}
.class-zsqjp2e1u .stroke-white-shadow-extra {
  stroke: #b5b5b5;
}
.class-zsqjp2e1u .fill-yellow {
  fill: #eaea00;
}
.class-zsqjp2e1u .fill-yellow-shadow {
  fill: #dada00;
}
.class-zsqjp2e1u .fill-yellow-shadow-extra {
  fill: #cbcb00;
}
.class-zsqjp2e1u .stop-color-yellow {
  stop-color: #eaea00;
}
.class-zsqjp2e1u .stop-color-yellow-shadow {
  stop-color: #dada00;
}
.class-zsqjp2e1u .stop-color-yellow-shadow-extra {
  stop-color: #cbcb00;
}
.class-zsqjp2e1u .fill-green {
  fill: #199c56;
}
.class-zsqjp2e1u .fill-green-shadow {
  fill: #168c4d;
}
.class-zsqjp2e1u .fill-green-shadow-extra {
  fill: #147e45;
}
.class-zsqjp2e1u .stop-color-green {
  stop-color: #199c56;
}
.class-zsqjp2e1u .stop-color-green-shadow {
  stop-color: #168c4d;
}
.class-zsqjp2e1u .stop-color-green-shadow-extra {
  stop-color: #147e45;
}
.class-zsqjp2e1u .stroke-green {
  stroke: #199c56;
}
.class-zsqjp2e1u .stroke-green-shadow {
  stroke: #168c4d;
}
.class-zsqjp2e1u .stroke-green-shadow-extra {
  stroke: #127540;
}
.class-zsqjp2e1u .fill-red {
  fill: #ce3827;
}
.class-zsqjp2e1u .fill-red-shadow {
  fill: #b93223;
}
.class-zsqjp2e1u .fill-red-shadow-extra {
  fill: #a62d1f;
}
.class-zsqjp2e1u .stop-color-red {
  stop-color: #ce3827;
}
.class-zsqjp2e1u .stop-color-red-shadow {
  stop-color: #b93223;
}
.class-zsqjp2e1u .stop-color-red-shadow-extra {
  stop-color: #a62d1f;
}
.class-zsqjp2e1u .fill-orange {
  fill: #f09c25;
}
.class-zsqjp2e1u .fill-orange-shadow {
  fill: #e98f10;
}
.class-zsqjp2e1u .fill-orange-shadow-extra {
  fill: #d1800e;
}
.class-zsqjp2e1u .stop-color-orange {
  stop-color: #f09c25;
}
.class-zsqjp2e1u .stop-color-orange-shadow {
  stop-color: #e98f10;
}
.class-zsqjp2e1u .stop-color-orange-shadow-extra {
  stop-color: #d1800e;
}
.class-zsqjp2e1u .fill-blue {
  fill: #3b7ded;
}
.class-zsqjp2e1u .fill-blue-shadow {
  fill: #1f6bea;
}
.class-zsqjp2e1u .fill-blue-shadow-extra {
  fill: #145eda;
}
.class-zsqjp2e1u .stop-color-blue {
  stop-color: #3b7ded;
}
.class-zsqjp2e1u .stop-color-blue-shadow {
  stop-color: #1f6bea;
}
.class-zsqjp2e1u .stop-color-blue-shadow-extra {
  stop-color: #145eda;
}
.class-zsqjp2e1u .fill-color-0 {
  fill: #1e1d20;
}
.class-zsqjp2e1u .fill-color-0-shadow {
  fill: #1b1a1d;
}
.class-zsqjp2e1u .fill-color-0-shadow-extra {
  fill: #171618;
}
.class-zsqjp2e1u .stop-color-color-0 {
  stop-color: #1e1d20;
}
.class-zsqjp2e1u .fill-color-1 {
  fill: #f3d57a;
}
.class-zsqjp2e1u .fill-color-1-shadow {
  fill: #f0ca58;
}
.class-zsqjp2e1u .fill-color-1-shadow-extra {
  fill: #ecba27;
}
.class-zsqjp2e1u .fill-body-detail {
  fill: #ffffff;
}
.class-zsqjp2e1u .stroke-color-0 {
  stroke: #1e1d20;
}
.class-zsqjp2e1u .stroke-color-0-shadow {
  stroke: #1b1a1d;
}
.class-zsqjp2e1u .stroke-color-0-shadow-extra {
  stroke: #171618;
}
.class-zsqjp2e1u .stroke-color-1 {
  stroke: #f3d57a;
}
.class-zsqjp2e1u .stroke-color-1-shadow {
  stroke: #f0ca58;
}
.class-zsqjp2e1u .stroke-color-1-shadow-extra {
  stroke: #ecba27;
}</style></svg></g></svg>