<svg xmlns="http://www.w3.org/2000/svg" version="1.1" xmlns:xlink="http://www.w3.org/1999/xlink" xmlns:svgjs="http://svgjs.com/svgjs" width="100.12" height="306.02"><svg xmlns="http://www.w3.org/2000/svg" version="1.1" xmlns:xlink="http://www.w3.org/1999/xlink" xmlns:svgjs="http://svgjs.com/svgjs" width="100.12" height="306.02" class="class-viyu0prjk"><svg xmlns="http://www.w3.org/2000/svg" viewBox="0 0 100.12 306.02" class="class-viyu0prjk">
    <g data-name="Layer 2">
        <g data-name="Layer 1">
            <path d="M60.73 42.81a3.45 3.45 0 00-2.36-2.2c-1.3-.34-4-1.18-4.95-3.42-1.27-3-4.37-4.17-5.68-4.52a.33.33 0 01-.1-.59c.76-.51 2.38-1 5 .76 0 0-2-5.12-1.1-5.4s1.54.93 2.07 2.18a1.64 1.64 0 012.13-.18 5 5 0 015.56 2.36c2.13 3.41 5.18 14.67 5.18 14.67l-4.18 2z" class="fill-skin-shadow"></path>
            <path d="M60.64 46.78a7.83 7.83 0 016.85-1.32S74.22 72.19 72.2 91c0 0-9.72-.42-21.68-10.89l-6-30.66s7 7.22 20.68 27.26c.01.04-.97-18.49-4.56-29.93z" class="fill-white-shadow"></path>
            <path d="M34 41.92s6.59.36 13.1 6.16l-.47 7.26z" class="fill-white-shadow"></path>
            <path d="M51.72 20.51l-2.31-1.8a10.77 10.77 0 01-2.81-4.81c-.51-4.49-4.32-7.81-4.32-7.81-1.73-3.8-11.12-.35-17.28 6.32s-2.8 11.7 2.17 13.51a6.22 6.22 0 011.59.88c.08.75 1.14 1.62 1.24 2.62C31.19 41.22 24.85 45 24.85 45l15.41 5.79s-3.2-3.42-3.9-5.55c-.13-.4 1.29-1.28 1.28-2.34 0-2 2.37-6 5.23-7.07s6.37-1.89 7.79-2.38c1.79-.62 1.59-2.05 1.59-3.64 0 0-.4-.5-1.18-1.52s.06-1.1.21-1.66c.36-1.3-.86-1.18-.3-2.23a1.55 1.55 0 00-.34-1.84l.49-.3c.87-.58 1.46-1.19.59-1.75z" class="fill-skin"></path>
            <path d="M36.36 45.21c-.13-.4 1.29 1.65 1.28.58 0-2 1.79-8.68 5.23-10 2.81-1.08 6.37-1.89 7.79-2.38a2.06 2.06 0 001.5-1.63 48.67 48.67 0 00-9.42-.6A4.34 4.34 0 0138.5 28l-2.32-8.73s6.67-6.78-3.61-2.62-3.42 14-3.42 14C30.39 36.18 26 44.78 26 44.78l11.27 2.35a8.24 8.24 0 01-.91-1.92z" class="fill-skin-shadow"></path>
            <path d="M46.87 11.84a8.19 8.19 0 00-4.49-8S39.19-.89 36 .15a4.62 4.62 0 013.22 4 5.28 5.28 0 00-6.39-.86s2.48.13 3.25 1.28c0 0-10.07-.62-12 6.3 0 0-8.24 3.36.94 15.59 0 0 3.86 4.13 4.29 8 0 0 5.94-3.48 5.37-8.35a3.92 3.92 0 01-3.83-3.18c-.31-1.6.33-2.34 1.05-2.68a2.39 2.39 0 012.75.6 3.91 3.91 0 01.9 1.6l.36.87a2.5 2.5 0 002.54 1.54 5 5 0 01.92-4.9c1.86-2.16 4.37-5.78 4.11-9.42 0 0 2.68.84 2.92 2.1" class="fill-hair"></path>
            <path d="M43 18.43A7.88 7.88 0 0145.22 17a1.83 1.83 0 01.15.67l.41.33a6.67 6.67 0 01-2.78.43z" class="fill-hair-shadow"></path>
            <path d="M62.19 111.42L59.71 115l-22.33 9.11-7.45-9.11-1.46-1.51a7.2 7.2 0 01-2-4.8c-.28-9.86-.76-43.49-5.49-63.74 0 0 12.78-2.18 21.24 3.63 12.46 8.54 19.97 62.84 19.97 62.84z" class="fill-white"></path>
            <path d="M24.65 70.7c1.37 15.89 1.62 31.69 1.8 37.94a7.2 7.2 0 002 4.8l1.48 1.56 7.45 9.11L59.71 115l2.29-3.29c-7.88-4.22-17-4.86-19.39-5.7-6.47-2.28-11-30.17-10.6-45.94 0 0-2.16 2.87-7.35 9.66" class="fill-white-shadow"></path>
            <path d="M27.09 255.22L16.74 267l4.89 9.17s7.24-13.09 10.81-19.51-5.35-1.44-5.35-1.44z" class="fill-white"></path>
            <path d="M32.13 126.57s-.82 14.27 3.21 21.73c0 0 17.31 52.69 15 60.78s-28.72 50.61-28.72 50.61a16.29 16.29 0 008.63 6.31 159.74 159.74 0 0120.29-31.92c13-15.81 17.05-21.12 10.73-40S48.8 127.81 48.8 127.81z" class="fill-color-0-shadow"></path>
            <path d="M78.69 294.14a12.34 12.34 0 01-2.57-7.14v-14.73h-7.88s.13 13.55-1.44 20.11c0 0 4.08 11.49 11.89 1.76z" class="fill-white"></path>
            <path d="M66.8 292.38L65.66 301a2.26 2.26 0 001.8 2.51 37.13 37.13 0 006.7.81l.72-.29a5.48 5.48 0 013.2-.28A114 114 0 0092 306a24.38 24.38 0 005.47-.39c2.34-.71 3.21-1.45 2.23-1.76-6.89-2.2-17.49-10.4-18.78-11.7a3.21 3.21 0 00-2.94-.84l-.67.15a3.22 3.22 0 00-2.31 2.19l-.07.24s-5.16 2.28-8.13-1.51zM18.7 264.76s-.52 4.5 2.93 6.61a2.79 2.79 0 012.37.73 2.68 2.68 0 01.34 3.2c-1.16 2.09-3.29 7.22-1.56 14.84 1.55 6.85 2.4 7.91 2.4 7.91s.77 1.4-2.35.58-10-8.1-10.78-13.19c0 0-.57-5.45-2.68-5.64a14.28 14.28 0 01-1.74-5.8 3.85 3.85 0 012.23-4c2.57-1.21 6.59-3.2 8.84-5.24z" class="fill-hair-shadow"></path>
            <path d="M30.41 114.81c16.85-4 27.58 0 27.58 0s.74 16.13.74 18.28c0 5.28 16.9 69.15 18.63 76s3.44 76.46 3.44 76.46c-4 2.87-14.36 0-14.36 0s2.3-54.58-5.17-76.46-19.94-62.5-19.94-62.5c-.25-.78-.48-1.54-.7-2.3l-5.29 4c-10.22-11.48-4.93-33.48-4.93-33.48z" class="fill-color-0"></path>
            <path d="M80.28 266.66c-7.1-5.87-11.55-14.56-13.93-20.36.9 20.13.09 39.24.09 39.24s10.34 2.87 14.36 0c0 0-.19-8.02-.52-18.88zM44 155.05c-1.67-5.2-2.7-8.47-2.7-8.47-.25-.78-.48-1.54-.7-2.3l-5.29 4c-10.22-11.49-4.93-33.49-4.93-33.49 1.76-.42 3.44-.75 5.06-1 7.32 3.58 14.23 9.86 19.76 11.23.03-.02-16.13 14.56-11.2 30.03z" class="fill-color-0-shadow"></path>
            <path d="M58.23 115.77s-10.87-4.24-28 0l-.41 1.89s16.22-4.26 28.45-.14z" class="fill-hair-shadow"></path>
            <path d="M33.09 118.92h-1.05v-4.4h1.05z" class="fill-hair-shadow"></path>
            <path d="M42.12 118.02h-1.05v-4.4h1.05z" class="fill-color-0-shadow"></path>
            <path d="M52.8 118.02h1.06v-3.6l-1.06-.81v4.41z" class="fill-color-0"></path>
            <path d="M44.63 129.5s-4-4.77-2.62-9.17c.5-1.61 2.32.75.74-2.87-1-2.25 1.41-1.38 3.36-.4a12.21 12.21 0 013.46 2.59c2 2.19 6 6.26 7.17 6.34a11.66 11.66 0 01-6-1.56" class="fill-skin"></path>
            <path d="M22.1 73.82C14.22 84 13.35 90.91 13.35 90.91 17.08 98.77 44.79 116 44.79 116c.38 7.24-3.6 9.17-3.6 9.17-8.6-3.85-38.88-21.38-41-31.31S21 44.9 21 44.9a22.7 22.7 0 011.1 28.92z" class="fill-white"></path>
            <path d="M25 44.5s21.9 6.7 31.76 45.24c0 0-1.08-48.95-31.76-45.24z" class="fill-white-shadow"></path>
            <path d="M41.2 46.47a4.54 4.54 0 014.12 4.23C59 71.75 60.16 89.25 61 95.76a.61.61 0 01-1.08.47L57.6 92a8.44 8.44 0 01-.93-2.89c-2.24-16.47-10.41-32.55-13.41-38a1.27 1.27 0 00-.86-.63 12.5 12.5 0 00-3.27-.38c-2.62.27 2.07-3.63 2.07-3.63z" class="fill-color-1"></path>
            <path d="M22.41 59.09C18.35 66.74 5.11 86.59 7.8 91s11.2 17.16 36.61 29.35c-.94 3.68-3.22 4.79-3.22 4.79-8.6-3.85-38.88-21.38-41-31.31S21 44.9 21 44.9s5.47 6.53 1.41 14.19z" class="fill-white-shadow"></path>
            <path d="M25 44.5l2.11-3.71S34.48 40.47 43 47l-3 5.3c-5-3.88-9.23-7.37-15-7.8z" class="fill-white"></path>
            <path d="M24 10.9c1.94-6.92 12-6.3 12-6.3-.77-1.15-3.25-1.28-3.25-1.28a5.28 5.28 0 016.39.86A4.62 4.62 0 0036 .15a2.84 2.84 0 01.49-.1c4 .68 3.92 4.54 5.12 4.87 1.41.39 2.79 3 2.79 3l-2.82-1.37c1.49 1.09 0 3.41 0 3.41S39.7 6.08 40 10s-.62 3-2.17 9.46c-.7 2.93-.21 4.54.55 5.45a2.5 2.5 0 01-2.52-1.54l-.36-.87a3.91 3.91 0 00-.9-1.6 2.39 2.39 0 00-2.75-.6c-.72.34-1.36 1.08-1.05 2.68a3.92 3.92 0 003.83 3.18c.57 4.87-5.37 8.35-5.37 8.35-.43-3.85-4.29-8-4.29-8C15.8 14.26 24 10.9 24 10.9z" class="fill-hair-shadow"></path>
            <path d="M97.49 305.61A24.38 24.38 0 0192 306a114 114 0 01-13.94-2.24 5.48 5.48 0 00-3.2.28l-.72.29a37.13 37.13 0 01-6.7-.81 2.26 2.26 0 01-1.8-2.51l.08-.6c5.71 1.16 19.43 3.94 25 4.65 7 .9 9-1.21 9-1.21.98.31.11 1.05-2.23 1.76zM22.83 298.63c-3.12-.83-10-8.1-10.78-13.19 0 0-.57-5.45-2.68-5.64a14.28 14.28 0 01-1.74-5.8 3.85 3.85 0 012.23-4l.49-.23c.8 10.09 3.65 17.71 7.09 22.87 3.7 5.56 7.74 5.45 7.74 5.45.09.15.55 1.31-2.35.54z" class="fill-color-1"></path>
        </g>
    </g>
</svg></svg><style>.class-viyu0prjk .fill-skin {
  fill: #f1d9b1;
}
.class-viyu0prjk .fill-skin-shadow {
  fill: #ebc78d;
}
.class-viyu0prjk .fill-hair {
  fill: #1e1d20;
}
.class-viyu0prjk .fill-hair-shadow {
  fill: #1b1a1d;
}
.class-viyu0prjk .fill-white {
  fill: #f0f0f0;
}
.class-viyu0prjk .fill-white-shadow {
  fill: #d8d8d8;
}
.class-viyu0prjk .fill-white-shadow-extra {
  fill: #c2c2c2;
}
.class-viyu0prjk .stop-color-white {
  stop-color: #f0f0f0;
}
.class-viyu0prjk .stop-color-white-shadow {
  stop-color: #d8d8d8;
}
.class-viyu0prjk .stop-color-white-shadow-extra {
  stop-color: #c2c2c2;
}
.class-viyu0prjk .stroke-white {
  stroke: #f0f0f0;
}
.class-viyu0prjk .stroke-white-shadow {
  stroke: #d8d8d8;
}
.class-viyu0prjk .stroke-white-shadow-extra {
  stroke: #b5b5b5;
}
.class-viyu0prjk .fill-yellow {
  fill: #eaea00;
}
.class-viyu0prjk .fill-yellow-shadow {
  fill: #dada00;
}
.class-viyu0prjk .fill-yellow-shadow-extra {
  fill: #cbcb00;
}
.class-viyu0prjk .stop-color-yellow {
  stop-color: #eaea00;
}
.class-viyu0prjk .stop-color-yellow-shadow {
  stop-color: #dada00;
}
.class-viyu0prjk .stop-color-yellow-shadow-extra {
  stop-color: #cbcb00;
}
.class-viyu0prjk .fill-green {
  fill: #199c56;
}
.class-viyu0prjk .fill-green-shadow {
  fill: #168c4d;
}
.class-viyu0prjk .fill-green-shadow-extra {
  fill: #147e45;
}
.class-viyu0prjk .stop-color-green {
  stop-color: #199c56;
}
.class-viyu0prjk .stop-color-green-shadow {
  stop-color: #168c4d;
}
.class-viyu0prjk .stop-color-green-shadow-extra {
  stop-color: #147e45;
}
.class-viyu0prjk .stroke-green {
  stroke: #199c56;
}
.class-viyu0prjk .stroke-green-shadow {
  stroke: #168c4d;
}
.class-viyu0prjk .stroke-green-shadow-extra {
  stroke: #127540;
}
.class-viyu0prjk .fill-red {
  fill: #ce3827;
}
.class-viyu0prjk .fill-red-shadow {
  fill: #b93223;
}
.class-viyu0prjk .fill-red-shadow-extra {
  fill: #a62d1f;
}
.class-viyu0prjk .stop-color-red {
  stop-color: #ce3827;
}
.class-viyu0prjk .stop-color-red-shadow {
  stop-color: #b93223;
}
.class-viyu0prjk .stop-color-red-shadow-extra {
  stop-color: #a62d1f;
}
.class-viyu0prjk .fill-orange {
  fill: #f09c25;
}
.class-viyu0prjk .fill-orange-shadow {
  fill: #e98f10;
}
.class-viyu0prjk .fill-orange-shadow-extra {
  fill: #d1800e;
}
.class-viyu0prjk .stop-color-orange {
  stop-color: #f09c25;
}
.class-viyu0prjk .stop-color-orange-shadow {
  stop-color: #e98f10;
}
.class-viyu0prjk .stop-color-orange-shadow-extra {
  stop-color: #d1800e;
}
.class-viyu0prjk .fill-blue {
  fill: #3b7ded;
}
.class-viyu0prjk .fill-blue-shadow {
  fill: #1f6bea;
}
.class-viyu0prjk .fill-blue-shadow-extra {
  fill: #145eda;
}
.class-viyu0prjk .stop-color-blue {
  stop-color: #3b7ded;
}
.class-viyu0prjk .stop-color-blue-shadow {
  stop-color: #1f6bea;
}
.class-viyu0prjk .stop-color-blue-shadow-extra {
  stop-color: #145eda;
}
.class-viyu0prjk .fill-color-0 {
  fill: #1e1d20;
}
.class-viyu0prjk .fill-color-0-shadow {
  fill: #1b1a1d;
}
.class-viyu0prjk .fill-color-0-shadow-extra {
  fill: #171618;
}
.class-viyu0prjk .stop-color-color-0 {
  stop-color: #1e1d20;
}
.class-viyu0prjk .fill-color-1 {
  fill: #199c56;
}
.class-viyu0prjk .fill-color-1-shadow {
  fill: #168c4d;
}
.class-viyu0prjk .fill-color-1-shadow-extra {
  fill: #127540;
}
.class-viyu0prjk .fill-body-detail {
  fill: #ffffff;
}
.class-viyu0prjk .stroke-color-0 {
  stroke: #1e1d20;
}
.class-viyu0prjk .stroke-color-0-shadow {
  stroke: #1b1a1d;
}
.class-viyu0prjk .stroke-color-0-shadow-extra {
  stroke: #171618;
}
.class-viyu0prjk .stroke-color-1 {
  stroke: #199c56;
}
.class-viyu0prjk .stroke-color-1-shadow {
  stroke: #168c4d;
}
.class-viyu0prjk .stroke-color-1-shadow-extra {
  stroke: #127540;
}</style></svg>